<mxfile host="app.diagrams.net" modified="2022-04-07T10:07:32.934Z" agent="5.0 (Windows NT 10.0; Win64; x64) AppleWebKit/537.36 (KHTML, like Gecko) Chrome/99.0.4844.84 Safari/537.36" etag="yp_1GlsFA97mV_AAO4Ew" version="17.4.0" type="github">
  <diagram id="C5RBs43oDa-KdzZeNtuy" name="Page-1">
    <mxGraphModel dx="4063" dy="2383" grid="1" gridSize="10" guides="1" tooltips="1" connect="1" arrows="1" fold="1" page="1" pageScale="1" pageWidth="8000" pageHeight="6000" math="0" shadow="0">
      <root>
        <mxCell id="WIyWlLk6GJQsqaUBKTNV-0" />
        <mxCell id="WIyWlLk6GJQsqaUBKTNV-1" parent="WIyWlLk6GJQsqaUBKTNV-0" />
        <mxCell id="l--_rwEBYW_ynLptJhpw-0" value="" style="edgeStyle=orthogonalEdgeStyle;rounded=0;orthogonalLoop=1;jettySize=auto;html=1;" edge="1" parent="WIyWlLk6GJQsqaUBKTNV-1" source="l--_rwEBYW_ynLptJhpw-1" target="l--_rwEBYW_ynLptJhpw-3">
          <mxGeometry relative="1" as="geometry" />
        </mxCell>
        <mxCell id="l--_rwEBYW_ynLptJhpw-1" value="Start" style="rounded=1;whiteSpace=wrap;html=1;fontSize=12;glass=0;strokeWidth=1;shadow=0;labelBackgroundColor=none;fillColor=#6a00ff;strokeColor=#3700CC;fontColor=#ffffff;" vertex="1" parent="WIyWlLk6GJQsqaUBKTNV-1">
          <mxGeometry x="92.5" y="40" width="120" height="40" as="geometry" />
        </mxCell>
        <mxCell id="l--_rwEBYW_ynLptJhpw-2" value="" style="edgeStyle=orthogonalEdgeStyle;rounded=0;orthogonalLoop=1;jettySize=auto;html=1;" edge="1" parent="WIyWlLk6GJQsqaUBKTNV-1" source="l--_rwEBYW_ynLptJhpw-3" target="l--_rwEBYW_ynLptJhpw-5">
          <mxGeometry relative="1" as="geometry" />
        </mxCell>
        <mxCell id="l--_rwEBYW_ynLptJhpw-3" value="set SffResponse sffResponse" style="rounded=1;whiteSpace=wrap;html=1;absoluteArcSize=1;arcSize=14;strokeWidth=1;fillColor=#dae8fc;strokeColor=#6c8ebf;" vertex="1" parent="WIyWlLk6GJQsqaUBKTNV-1">
          <mxGeometry x="60" y="140" width="185" height="40" as="geometry" />
        </mxCell>
        <mxCell id="l--_rwEBYW_ynLptJhpw-4" value="" style="edgeStyle=orthogonalEdgeStyle;rounded=0;orthogonalLoop=1;jettySize=auto;html=1;" edge="1" parent="WIyWlLk6GJQsqaUBKTNV-1" source="l--_rwEBYW_ynLptJhpw-5" target="l--_rwEBYW_ynLptJhpw-8">
          <mxGeometry relative="1" as="geometry" />
        </mxCell>
        <mxCell id="l--_rwEBYW_ynLptJhpw-5" value="set SffMnpPreValidate = inputMnpPreValidate" style="rounded=1;whiteSpace=wrap;html=1;absoluteArcSize=1;arcSize=14;strokeWidth=1;fillColor=#dae8fc;strokeColor=#6c8ebf;" vertex="1" parent="WIyWlLk6GJQsqaUBKTNV-1">
          <mxGeometry x="22.5" y="230" width="260" height="40" as="geometry" />
        </mxCell>
        <mxCell id="l--_rwEBYW_ynLptJhpw-6" value="" style="edgeStyle=orthogonalEdgeStyle;rounded=0;orthogonalLoop=1;jettySize=auto;html=1;fillColor=#e51400;strokeColor=#B20000;" edge="1" parent="WIyWlLk6GJQsqaUBKTNV-1" source="l--_rwEBYW_ynLptJhpw-8" target="l--_rwEBYW_ynLptJhpw-10">
          <mxGeometry relative="1" as="geometry" />
        </mxCell>
        <mxCell id="l--_rwEBYW_ynLptJhpw-7" style="edgeStyle=orthogonalEdgeStyle;rounded=0;orthogonalLoop=1;jettySize=auto;html=1;fontSize=17;fontColor=#FF0000;endArrow=open;endFill=0;strokeWidth=1;entryX=0;entryY=0.5;entryDx=0;entryDy=0;fillColor=#008a00;strokeColor=#005700;" edge="1" parent="WIyWlLk6GJQsqaUBKTNV-1" source="l--_rwEBYW_ynLptJhpw-8" target="l--_rwEBYW_ynLptJhpw-145">
          <mxGeometry relative="1" as="geometry">
            <mxPoint x="70" y="5680" as="targetPoint" />
            <Array as="points">
              <mxPoint x="40" y="360" />
              <mxPoint x="40" y="5695" />
            </Array>
          </mxGeometry>
        </mxCell>
        <mxCell id="l--_rwEBYW_ynLptJhpw-8" value="sffRequest is null" style="strokeWidth=2;html=1;shape=mxgraph.flowchart.decision;whiteSpace=wrap;labelBackgroundColor=none;fillColor=#e51400;strokeColor=#B20000;fontColor=#ffffff;" vertex="1" parent="WIyWlLk6GJQsqaUBKTNV-1">
          <mxGeometry x="102.5" y="310" width="100" height="100" as="geometry" />
        </mxCell>
        <mxCell id="l--_rwEBYW_ynLptJhpw-9" value="" style="edgeStyle=orthogonalEdgeStyle;rounded=0;orthogonalLoop=1;jettySize=auto;html=1;" edge="1" parent="WIyWlLk6GJQsqaUBKTNV-1" source="l--_rwEBYW_ynLptJhpw-10">
          <mxGeometry relative="1" as="geometry">
            <mxPoint x="633.4300000000003" y="430" as="targetPoint" />
          </mxGeometry>
        </mxCell>
        <mxCell id="l--_rwEBYW_ynLptJhpw-10" value="parameterList = sffRequest.getParameterList()" style="rounded=1;whiteSpace=wrap;html=1;absoluteArcSize=1;arcSize=14;strokeWidth=1;fillColor=#dae8fc;strokeColor=#6c8ebf;" vertex="1" parent="WIyWlLk6GJQsqaUBKTNV-1">
          <mxGeometry x="490.93" y="340" width="285" height="40" as="geometry" />
        </mxCell>
        <mxCell id="l--_rwEBYW_ynLptJhpw-11" style="edgeStyle=orthogonalEdgeStyle;rounded=0;orthogonalLoop=1;jettySize=auto;html=1;fontColor=#FF0000;fillColor=#e51400;strokeColor=#B20000;exitX=1;exitY=0.5;exitDx=0;exitDy=0;exitPerimeter=0;" edge="1" parent="WIyWlLk6GJQsqaUBKTNV-1" source="l--_rwEBYW_ynLptJhpw-13" target="l--_rwEBYW_ynLptJhpw-17">
          <mxGeometry relative="1" as="geometry" />
        </mxCell>
        <mxCell id="l--_rwEBYW_ynLptJhpw-12" value="" style="edgeStyle=orthogonalEdgeStyle;rounded=0;orthogonalLoop=1;jettySize=auto;html=1;endArrow=open;endFill=0;strokeWidth=1;fillColor=#008a00;strokeColor=#005700;" edge="1" parent="WIyWlLk6GJQsqaUBKTNV-1" target="l--_rwEBYW_ynLptJhpw-172">
          <mxGeometry relative="1" as="geometry">
            <mxPoint x="570" y="585" as="sourcePoint" />
          </mxGeometry>
        </mxCell>
        <mxCell id="l--_rwEBYW_ynLptJhpw-13" value="parameterList is null" style="strokeWidth=2;html=1;shape=mxgraph.flowchart.decision;whiteSpace=wrap;flipV=1;fillColor=#e51400;strokeColor=#B20000;fontColor=#ffffff;" vertex="1" parent="WIyWlLk6GJQsqaUBKTNV-1">
          <mxGeometry x="573.43" y="530" width="122.5" height="110" as="geometry" />
        </mxCell>
        <mxCell id="l--_rwEBYW_ynLptJhpw-14" value="True" style="text;html=1;align=center;verticalAlign=middle;whiteSpace=wrap;rounded=0;fontColor=#009900;" vertex="1" parent="WIyWlLk6GJQsqaUBKTNV-1">
          <mxGeometry x="42.5" y="330" width="60" height="30" as="geometry" />
        </mxCell>
        <mxCell id="l--_rwEBYW_ynLptJhpw-15" value="False" style="text;html=1;strokeColor=none;fillColor=none;align=center;verticalAlign=middle;whiteSpace=wrap;rounded=0;fontColor=#FF0000;" vertex="1" parent="WIyWlLk6GJQsqaUBKTNV-1">
          <mxGeometry x="212.5" y="330" width="60" height="30" as="geometry" />
        </mxCell>
        <mxCell id="l--_rwEBYW_ynLptJhpw-16" value="" style="edgeStyle=orthogonalEdgeStyle;rounded=0;orthogonalLoop=1;jettySize=auto;html=1;fontColor=#FF0000;" edge="1" parent="WIyWlLk6GJQsqaUBKTNV-1" source="l--_rwEBYW_ynLptJhpw-17" target="l--_rwEBYW_ynLptJhpw-21">
          <mxGeometry relative="1" as="geometry" />
        </mxCell>
        <mxCell id="l--_rwEBYW_ynLptJhpw-17" value="parametersIn = parameterList.getParameter()" style="rounded=1;whiteSpace=wrap;html=1;absoluteArcSize=1;arcSize=14;strokeWidth=1;fillColor=#dae8fc;strokeColor=#6c8ebf;" vertex="1" parent="WIyWlLk6GJQsqaUBKTNV-1">
          <mxGeometry x="919.7499999999999" y="650" width="285" height="40" as="geometry" />
        </mxCell>
        <mxCell id="l--_rwEBYW_ynLptJhpw-18" value="False" style="text;html=1;strokeColor=none;fillColor=none;align=center;verticalAlign=middle;whiteSpace=wrap;rounded=0;fontColor=#FF0000;" vertex="1" parent="WIyWlLk6GJQsqaUBKTNV-1">
          <mxGeometry x="730.93" y="560" width="60" height="30" as="geometry" />
        </mxCell>
        <mxCell id="l--_rwEBYW_ynLptJhpw-19" value="" style="edgeStyle=orthogonalEdgeStyle;rounded=0;orthogonalLoop=1;jettySize=auto;html=1;fontColor=#FF0000;fillColor=#e51400;strokeColor=#B20000;" edge="1" parent="WIyWlLk6GJQsqaUBKTNV-1" source="l--_rwEBYW_ynLptJhpw-21" target="l--_rwEBYW_ynLptJhpw-24">
          <mxGeometry relative="1" as="geometry" />
        </mxCell>
        <mxCell id="l--_rwEBYW_ynLptJhpw-20" style="edgeStyle=orthogonalEdgeStyle;rounded=0;orthogonalLoop=1;jettySize=auto;html=1;fontSize=28;fontColor=#FF0000;endArrow=open;endFill=0;strokeWidth=1;entryX=0.5;entryY=0;entryDx=0;entryDy=0;fillColor=#60a917;strokeColor=#2D7600;" edge="1" parent="WIyWlLk6GJQsqaUBKTNV-1" source="l--_rwEBYW_ynLptJhpw-21" target="l--_rwEBYW_ynLptJhpw-321">
          <mxGeometry relative="1" as="geometry">
            <mxPoint x="3310" y="4400" as="targetPoint" />
            <Array as="points">
              <mxPoint x="670" y="1480" />
              <mxPoint x="670" y="4340" />
              <mxPoint x="3300" y="4340" />
            </Array>
          </mxGeometry>
        </mxCell>
        <mxCell id="l--_rwEBYW_ynLptJhpw-21" value="parametersIn is null and parametersIn.length = 0" style="strokeWidth=2;html=1;shape=mxgraph.flowchart.decision;whiteSpace=wrap;flipV=1;fillColor=#d5e8d4;strokeColor=#82b366;" vertex="1" parent="WIyWlLk6GJQsqaUBKTNV-1">
          <mxGeometry x="971.75" y="1420" width="181" height="120" as="geometry" />
        </mxCell>
        <mxCell id="l--_rwEBYW_ynLptJhpw-22" value="" style="edgeStyle=orthogonalEdgeStyle;rounded=0;orthogonalLoop=1;jettySize=auto;html=1;fontColor=#FF0000;fillColor=#008a00;strokeColor=#005700;" edge="1" parent="WIyWlLk6GJQsqaUBKTNV-1" source="l--_rwEBYW_ynLptJhpw-24" target="l--_rwEBYW_ynLptJhpw-28">
          <mxGeometry relative="1" as="geometry" />
        </mxCell>
        <mxCell id="l--_rwEBYW_ynLptJhpw-23" style="edgeStyle=orthogonalEdgeStyle;rounded=0;orthogonalLoop=1;jettySize=auto;html=1;entryX=0;entryY=0.5;entryDx=0;entryDy=0;entryPerimeter=0;" edge="1" parent="WIyWlLk6GJQsqaUBKTNV-1" source="l--_rwEBYW_ynLptJhpw-24" target="l--_rwEBYW_ynLptJhpw-135">
          <mxGeometry relative="1" as="geometry">
            <Array as="points">
              <mxPoint x="849.75" y="1655" />
              <mxPoint x="849.75" y="3890" />
            </Array>
          </mxGeometry>
        </mxCell>
        <mxCell id="l--_rwEBYW_ynLptJhpw-24" value="i &amp;lt; parametersIn.length" style="strokeWidth=2;html=1;shape=mxgraph.flowchart.decision;whiteSpace=wrap;flipV=1;fillColor=#fff2cc;strokeColor=#d6b656;" vertex="1" parent="WIyWlLk6GJQsqaUBKTNV-1">
          <mxGeometry x="976.62" y="1600" width="171.25" height="110" as="geometry" />
        </mxCell>
        <mxCell id="l--_rwEBYW_ynLptJhpw-25" style="edgeStyle=orthogonalEdgeStyle;rounded=0;orthogonalLoop=1;jettySize=auto;html=1;fontColor=#FF0000;fillColor=#008a00;strokeColor=#005700;" edge="1" parent="WIyWlLk6GJQsqaUBKTNV-1" source="l--_rwEBYW_ynLptJhpw-28" target="l--_rwEBYW_ynLptJhpw-32">
          <mxGeometry relative="1" as="geometry" />
        </mxCell>
        <mxCell id="l--_rwEBYW_ynLptJhpw-26" style="edgeStyle=orthogonalEdgeStyle;rounded=0;orthogonalLoop=1;jettySize=auto;html=1;entryX=0;entryY=0.5;entryDx=0;entryDy=0;entryPerimeter=0;fontColor=#FF0000;fillColor=#008a00;strokeColor=#005700;" edge="1" parent="WIyWlLk6GJQsqaUBKTNV-1" source="l--_rwEBYW_ynLptJhpw-28" target="l--_rwEBYW_ynLptJhpw-34">
          <mxGeometry relative="1" as="geometry" />
        </mxCell>
        <mxCell id="l--_rwEBYW_ynLptJhpw-27" style="edgeStyle=orthogonalEdgeStyle;rounded=0;orthogonalLoop=1;jettySize=auto;html=1;fontColor=#FF0000;fillColor=#e51400;strokeColor=#B20000;" edge="1" parent="WIyWlLk6GJQsqaUBKTNV-1" source="l--_rwEBYW_ynLptJhpw-28" target="l--_rwEBYW_ynLptJhpw-42">
          <mxGeometry relative="1" as="geometry" />
        </mxCell>
        <mxCell id="l--_rwEBYW_ynLptJhpw-28" value="mobileNo = getName" style="strokeWidth=2;html=1;shape=mxgraph.flowchart.decision;whiteSpace=wrap;flipV=1;fillColor=#f8cecc;strokeColor=#b85450;" vertex="1" parent="WIyWlLk6GJQsqaUBKTNV-1">
          <mxGeometry x="993.5" y="1790" width="137.5" height="100" as="geometry" />
        </mxCell>
        <mxCell id="l--_rwEBYW_ynLptJhpw-29" value="False" style="text;html=1;strokeColor=none;fillColor=none;align=center;verticalAlign=middle;whiteSpace=wrap;rounded=0;fontColor=#FF0000;" vertex="1" parent="WIyWlLk6GJQsqaUBKTNV-1">
          <mxGeometry x="1059.75" y="1550" width="60" height="30" as="geometry" />
        </mxCell>
        <mxCell id="l--_rwEBYW_ynLptJhpw-30" value="True" style="text;html=1;align=center;verticalAlign=middle;whiteSpace=wrap;rounded=0;fontColor=#009900;" vertex="1" parent="WIyWlLk6GJQsqaUBKTNV-1">
          <mxGeometry x="1059.75" y="1730" width="60" height="30" as="geometry" />
        </mxCell>
        <mxCell id="l--_rwEBYW_ynLptJhpw-31" style="edgeStyle=orthogonalEdgeStyle;rounded=0;orthogonalLoop=1;jettySize=auto;html=1;entryX=1;entryY=0.5;entryDx=0;entryDy=0;entryPerimeter=0;fontSize=28;fontColor=#FF0000;endArrow=open;endFill=0;strokeWidth=1;fillColor=#1ba1e2;strokeColor=#006EAF;" edge="1" parent="WIyWlLk6GJQsqaUBKTNV-1" source="l--_rwEBYW_ynLptJhpw-32" target="l--_rwEBYW_ynLptJhpw-135">
          <mxGeometry relative="1" as="geometry">
            <Array as="points">
              <mxPoint x="2290" y="1780" />
              <mxPoint x="2290" y="3890" />
            </Array>
          </mxGeometry>
        </mxCell>
        <mxCell id="l--_rwEBYW_ynLptJhpw-32" value="inputMnpPreValidate.setMobileNo(parametersIn[i].getValue())" style="rounded=1;whiteSpace=wrap;html=1;absoluteArcSize=1;arcSize=14;strokeWidth=1;fillColor=#dae8fc;strokeColor=#6c8ebf;" vertex="1" parent="WIyWlLk6GJQsqaUBKTNV-1">
          <mxGeometry x="1269.75" y="1760" width="390" height="40" as="geometry" />
        </mxCell>
        <mxCell id="l--_rwEBYW_ynLptJhpw-33" style="edgeStyle=orthogonalEdgeStyle;rounded=0;orthogonalLoop=1;jettySize=auto;html=1;entryX=0;entryY=0.5;entryDx=0;entryDy=0;fontColor=#FF0000;fillColor=#008a00;strokeColor=#005700;" edge="1" parent="WIyWlLk6GJQsqaUBKTNV-1" source="l--_rwEBYW_ynLptJhpw-34" target="l--_rwEBYW_ynLptJhpw-37">
          <mxGeometry relative="1" as="geometry" />
        </mxCell>
        <mxCell id="l--_rwEBYW_ynLptJhpw-34" value="getValue is null" style="strokeWidth=2;html=1;shape=mxgraph.flowchart.decision;whiteSpace=wrap;flipV=1;fillColor=#d5e8d4;strokeColor=#82b366;" vertex="1" parent="WIyWlLk6GJQsqaUBKTNV-1">
          <mxGeometry x="1269.75" y="1870" width="137.5" height="100" as="geometry" />
        </mxCell>
        <mxCell id="l--_rwEBYW_ynLptJhpw-35" value="True" style="text;html=1;align=center;verticalAlign=middle;whiteSpace=wrap;rounded=0;fontColor=#009900;" vertex="1" parent="WIyWlLk6GJQsqaUBKTNV-1">
          <mxGeometry x="1144.75" y="1810" width="60" height="30" as="geometry" />
        </mxCell>
        <mxCell id="l--_rwEBYW_ynLptJhpw-36" style="edgeStyle=orthogonalEdgeStyle;rounded=0;orthogonalLoop=1;jettySize=auto;html=1;entryX=0.5;entryY=1;entryDx=0;entryDy=0;entryPerimeter=0;fontSize=17;fontColor=#000000;endArrow=open;endFill=0;strokeWidth=1;" edge="1" parent="WIyWlLk6GJQsqaUBKTNV-1" target="l--_rwEBYW_ynLptJhpw-139">
          <mxGeometry relative="1" as="geometry">
            <mxPoint x="1940.75" y="1920.0000000000005" as="sourcePoint" />
            <mxPoint x="1063.245" y="4000" as="targetPoint" />
            <Array as="points">
              <mxPoint x="2430" y="1920" />
              <mxPoint x="2430" y="3970" />
              <mxPoint x="1062" y="3970" />
            </Array>
          </mxGeometry>
        </mxCell>
        <mxCell id="l--_rwEBYW_ynLptJhpw-37" value="errorMessage = &quot;mobileNo is require&quot;" style="rounded=1;whiteSpace=wrap;html=1;absoluteArcSize=1;arcSize=14;strokeWidth=1;fontColor=#FF0000;" vertex="1" parent="WIyWlLk6GJQsqaUBKTNV-1">
          <mxGeometry x="1679.75" y="1900" width="260" height="40" as="geometry" />
        </mxCell>
        <mxCell id="l--_rwEBYW_ynLptJhpw-38" value="True" style="text;html=1;align=center;verticalAlign=middle;whiteSpace=wrap;rounded=0;fontColor=#009900;" vertex="1" parent="WIyWlLk6GJQsqaUBKTNV-1">
          <mxGeometry x="1489.75" y="1890" width="60" height="30" as="geometry" />
        </mxCell>
        <mxCell id="l--_rwEBYW_ynLptJhpw-39" style="edgeStyle=orthogonalEdgeStyle;rounded=0;orthogonalLoop=1;jettySize=auto;html=1;fontColor=#FF0000;fillColor=#008a00;strokeColor=#005700;" edge="1" parent="WIyWlLk6GJQsqaUBKTNV-1" source="l--_rwEBYW_ynLptJhpw-42" target="l--_rwEBYW_ynLptJhpw-44">
          <mxGeometry relative="1" as="geometry" />
        </mxCell>
        <mxCell id="l--_rwEBYW_ynLptJhpw-40" style="edgeStyle=orthogonalEdgeStyle;rounded=0;orthogonalLoop=1;jettySize=auto;html=1;entryX=0;entryY=0.5;entryDx=0;entryDy=0;entryPerimeter=0;fontColor=#FF0000;fillColor=#008a00;strokeColor=#005700;" edge="1" parent="WIyWlLk6GJQsqaUBKTNV-1" source="l--_rwEBYW_ynLptJhpw-42" target="l--_rwEBYW_ynLptJhpw-46">
          <mxGeometry relative="1" as="geometry" />
        </mxCell>
        <mxCell id="l--_rwEBYW_ynLptJhpw-41" style="edgeStyle=orthogonalEdgeStyle;rounded=0;orthogonalLoop=1;jettySize=auto;html=1;fontColor=#FF0000;fillColor=#e51400;strokeColor=#B20000;" edge="1" parent="WIyWlLk6GJQsqaUBKTNV-1" source="l--_rwEBYW_ynLptJhpw-42" target="l--_rwEBYW_ynLptJhpw-54">
          <mxGeometry relative="1" as="geometry" />
        </mxCell>
        <mxCell id="l--_rwEBYW_ynLptJhpw-42" value="idCardNo = getName" style="strokeWidth=2;html=1;shape=mxgraph.flowchart.decision;whiteSpace=wrap;flipV=1;fillColor=#f8cecc;strokeColor=#b85450;" vertex="1" parent="WIyWlLk6GJQsqaUBKTNV-1">
          <mxGeometry x="993.5" y="2050" width="137.5" height="100" as="geometry" />
        </mxCell>
        <mxCell id="l--_rwEBYW_ynLptJhpw-43" style="edgeStyle=orthogonalEdgeStyle;rounded=0;orthogonalLoop=1;jettySize=auto;html=1;entryX=1;entryY=0.5;entryDx=0;entryDy=0;entryPerimeter=0;fontSize=28;fontColor=#FF0000;endArrow=open;endFill=0;strokeWidth=1;fillColor=#1ba1e2;strokeColor=#006EAF;" edge="1" parent="WIyWlLk6GJQsqaUBKTNV-1" source="l--_rwEBYW_ynLptJhpw-44" target="l--_rwEBYW_ynLptJhpw-135">
          <mxGeometry relative="1" as="geometry">
            <Array as="points">
              <mxPoint x="2290" y="2040" />
              <mxPoint x="2290" y="3890" />
            </Array>
          </mxGeometry>
        </mxCell>
        <mxCell id="l--_rwEBYW_ynLptJhpw-44" value="inputMnpPreValidate.setCustomerIdentity(parametersIn[i].getValue())" style="rounded=1;whiteSpace=wrap;html=1;absoluteArcSize=1;arcSize=14;strokeWidth=1;fillColor=#dae8fc;strokeColor=#6c8ebf;" vertex="1" parent="WIyWlLk6GJQsqaUBKTNV-1">
          <mxGeometry x="1269.75" y="2020" width="390" height="40" as="geometry" />
        </mxCell>
        <mxCell id="l--_rwEBYW_ynLptJhpw-45" style="edgeStyle=orthogonalEdgeStyle;rounded=0;orthogonalLoop=1;jettySize=auto;html=1;entryX=0;entryY=0.5;entryDx=0;entryDy=0;fontColor=#FF0000;fillColor=#008a00;strokeColor=#005700;" edge="1" parent="WIyWlLk6GJQsqaUBKTNV-1" source="l--_rwEBYW_ynLptJhpw-46" target="l--_rwEBYW_ynLptJhpw-49">
          <mxGeometry relative="1" as="geometry" />
        </mxCell>
        <mxCell id="l--_rwEBYW_ynLptJhpw-46" value="getValue is null" style="strokeWidth=2;html=1;shape=mxgraph.flowchart.decision;whiteSpace=wrap;flipV=1;fillColor=#d5e8d4;strokeColor=#82b366;" vertex="1" parent="WIyWlLk6GJQsqaUBKTNV-1">
          <mxGeometry x="1269.75" y="2130" width="137.5" height="100" as="geometry" />
        </mxCell>
        <mxCell id="l--_rwEBYW_ynLptJhpw-47" value="True" style="text;html=1;align=center;verticalAlign=middle;whiteSpace=wrap;rounded=0;fontColor=#009900;" vertex="1" parent="WIyWlLk6GJQsqaUBKTNV-1">
          <mxGeometry x="1144.75" y="2070" width="60" height="30" as="geometry" />
        </mxCell>
        <mxCell id="l--_rwEBYW_ynLptJhpw-48" style="edgeStyle=orthogonalEdgeStyle;rounded=0;orthogonalLoop=1;jettySize=auto;html=1;entryX=0.5;entryY=1;entryDx=0;entryDy=0;entryPerimeter=0;fontSize=17;fontColor=#000000;endArrow=open;endFill=0;strokeWidth=1;" edge="1" parent="WIyWlLk6GJQsqaUBKTNV-1" target="l--_rwEBYW_ynLptJhpw-139">
          <mxGeometry relative="1" as="geometry">
            <mxPoint x="1942.75" y="2180.0000000000005" as="sourcePoint" />
            <mxPoint x="1065.245" y="4000" as="targetPoint" />
            <Array as="points">
              <mxPoint x="2430" y="2180" />
              <mxPoint x="2430" y="3970" />
              <mxPoint x="1062" y="3970" />
            </Array>
          </mxGeometry>
        </mxCell>
        <mxCell id="l--_rwEBYW_ynLptJhpw-49" value="errorMessage = &quot;idCardNo is require&quot;" style="rounded=1;whiteSpace=wrap;html=1;absoluteArcSize=1;arcSize=14;strokeWidth=1;fontColor=#FF0000;" vertex="1" parent="WIyWlLk6GJQsqaUBKTNV-1">
          <mxGeometry x="1679.75" y="2160" width="260" height="40" as="geometry" />
        </mxCell>
        <mxCell id="l--_rwEBYW_ynLptJhpw-50" value="False" style="text;html=1;strokeColor=none;fillColor=none;align=center;verticalAlign=middle;whiteSpace=wrap;rounded=0;fontColor=#FF0000;" vertex="1" parent="WIyWlLk6GJQsqaUBKTNV-1">
          <mxGeometry x="1059.75" y="1950" width="60" height="30" as="geometry" />
        </mxCell>
        <mxCell id="l--_rwEBYW_ynLptJhpw-51" style="edgeStyle=orthogonalEdgeStyle;rounded=0;orthogonalLoop=1;jettySize=auto;html=1;fontColor=#FF0000;fillColor=#008a00;strokeColor=#005700;" edge="1" parent="WIyWlLk6GJQsqaUBKTNV-1" source="l--_rwEBYW_ynLptJhpw-54" target="l--_rwEBYW_ynLptJhpw-56">
          <mxGeometry relative="1" as="geometry" />
        </mxCell>
        <mxCell id="l--_rwEBYW_ynLptJhpw-52" style="edgeStyle=orthogonalEdgeStyle;rounded=0;orthogonalLoop=1;jettySize=auto;html=1;entryX=0;entryY=0.5;entryDx=0;entryDy=0;entryPerimeter=0;fontColor=#FF0000;fillColor=#008a00;strokeColor=#005700;" edge="1" parent="WIyWlLk6GJQsqaUBKTNV-1" source="l--_rwEBYW_ynLptJhpw-54" target="l--_rwEBYW_ynLptJhpw-58">
          <mxGeometry relative="1" as="geometry" />
        </mxCell>
        <mxCell id="l--_rwEBYW_ynLptJhpw-53" style="edgeStyle=orthogonalEdgeStyle;rounded=0;orthogonalLoop=1;jettySize=auto;html=1;entryX=0.5;entryY=1;entryDx=0;entryDy=0;entryPerimeter=0;fontColor=#FF0000;fillColor=#e51400;strokeColor=#B20000;" edge="1" parent="WIyWlLk6GJQsqaUBKTNV-1" source="l--_rwEBYW_ynLptJhpw-54" target="l--_rwEBYW_ynLptJhpw-66">
          <mxGeometry relative="1" as="geometry" />
        </mxCell>
        <mxCell id="l--_rwEBYW_ynLptJhpw-54" value="pinCode = getName" style="strokeWidth=2;html=1;shape=mxgraph.flowchart.decision;whiteSpace=wrap;flipV=1;fillColor=#f8cecc;strokeColor=#b85450;" vertex="1" parent="WIyWlLk6GJQsqaUBKTNV-1">
          <mxGeometry x="993.5" y="2310" width="137.5" height="100" as="geometry" />
        </mxCell>
        <mxCell id="l--_rwEBYW_ynLptJhpw-55" style="edgeStyle=orthogonalEdgeStyle;rounded=0;orthogonalLoop=1;jettySize=auto;html=1;entryX=1;entryY=0.5;entryDx=0;entryDy=0;entryPerimeter=0;fontSize=28;fontColor=#FF0000;endArrow=open;endFill=0;strokeWidth=1;fillColor=#1ba1e2;strokeColor=#006EAF;" edge="1" parent="WIyWlLk6GJQsqaUBKTNV-1" source="l--_rwEBYW_ynLptJhpw-56" target="l--_rwEBYW_ynLptJhpw-135">
          <mxGeometry relative="1" as="geometry">
            <Array as="points">
              <mxPoint x="2290" y="2300" />
              <mxPoint x="2290" y="3890" />
            </Array>
          </mxGeometry>
        </mxCell>
        <mxCell id="l--_rwEBYW_ynLptJhpw-56" value="inputMnpPreValidate.setPinCode(parametersIn[i].getValue())" style="rounded=1;whiteSpace=wrap;html=1;absoluteArcSize=1;arcSize=14;strokeWidth=1;fillColor=#dae8fc;strokeColor=#6c8ebf;" vertex="1" parent="WIyWlLk6GJQsqaUBKTNV-1">
          <mxGeometry x="1269.75" y="2280" width="390" height="40" as="geometry" />
        </mxCell>
        <mxCell id="l--_rwEBYW_ynLptJhpw-57" style="edgeStyle=orthogonalEdgeStyle;rounded=0;orthogonalLoop=1;jettySize=auto;html=1;entryX=0;entryY=0.5;entryDx=0;entryDy=0;fontColor=#FF0000;fillColor=#008a00;strokeColor=#005700;" edge="1" parent="WIyWlLk6GJQsqaUBKTNV-1" source="l--_rwEBYW_ynLptJhpw-58" target="l--_rwEBYW_ynLptJhpw-61">
          <mxGeometry relative="1" as="geometry" />
        </mxCell>
        <mxCell id="l--_rwEBYW_ynLptJhpw-58" value="getValue is null" style="strokeWidth=2;html=1;shape=mxgraph.flowchart.decision;whiteSpace=wrap;flipV=1;fillColor=#d5e8d4;strokeColor=#82b366;" vertex="1" parent="WIyWlLk6GJQsqaUBKTNV-1">
          <mxGeometry x="1269.75" y="2390" width="137.5" height="100" as="geometry" />
        </mxCell>
        <mxCell id="l--_rwEBYW_ynLptJhpw-59" value="True" style="text;html=1;align=center;verticalAlign=middle;whiteSpace=wrap;rounded=0;fontColor=#009900;" vertex="1" parent="WIyWlLk6GJQsqaUBKTNV-1">
          <mxGeometry x="1144.75" y="2330" width="60" height="30" as="geometry" />
        </mxCell>
        <mxCell id="l--_rwEBYW_ynLptJhpw-60" style="edgeStyle=orthogonalEdgeStyle;rounded=0;orthogonalLoop=1;jettySize=auto;html=1;entryX=0.5;entryY=1;entryDx=0;entryDy=0;entryPerimeter=0;fontSize=17;fontColor=#000000;endArrow=open;endFill=0;strokeWidth=1;" edge="1" parent="WIyWlLk6GJQsqaUBKTNV-1" target="l--_rwEBYW_ynLptJhpw-139">
          <mxGeometry relative="1" as="geometry">
            <mxPoint x="1940.75" y="2440.0000000000005" as="sourcePoint" />
            <mxPoint x="1063.245" y="4000" as="targetPoint" />
            <Array as="points">
              <mxPoint x="2430" y="2440" />
              <mxPoint x="2430" y="3970" />
              <mxPoint x="1062" y="3970" />
            </Array>
          </mxGeometry>
        </mxCell>
        <mxCell id="l--_rwEBYW_ynLptJhpw-61" value="errorMessage = &quot;pinCode is require&quot;" style="rounded=1;whiteSpace=wrap;html=1;absoluteArcSize=1;arcSize=14;strokeWidth=1;fontColor=#FF0000;" vertex="1" parent="WIyWlLk6GJQsqaUBKTNV-1">
          <mxGeometry x="1679.75" y="2420" width="260" height="40" as="geometry" />
        </mxCell>
        <mxCell id="l--_rwEBYW_ynLptJhpw-62" value="False" style="text;html=1;strokeColor=none;fillColor=none;align=center;verticalAlign=middle;whiteSpace=wrap;rounded=0;fontColor=#FF0000;" vertex="1" parent="WIyWlLk6GJQsqaUBKTNV-1">
          <mxGeometry x="1059.75" y="2220" width="60" height="30" as="geometry" />
        </mxCell>
        <mxCell id="l--_rwEBYW_ynLptJhpw-63" style="edgeStyle=orthogonalEdgeStyle;rounded=0;orthogonalLoop=1;jettySize=auto;html=1;fontColor=#FF0000;fillColor=#008a00;strokeColor=#005700;" edge="1" parent="WIyWlLk6GJQsqaUBKTNV-1" source="l--_rwEBYW_ynLptJhpw-66" target="l--_rwEBYW_ynLptJhpw-68">
          <mxGeometry relative="1" as="geometry" />
        </mxCell>
        <mxCell id="l--_rwEBYW_ynLptJhpw-64" style="edgeStyle=orthogonalEdgeStyle;rounded=0;orthogonalLoop=1;jettySize=auto;html=1;entryX=0;entryY=0.5;entryDx=0;entryDy=0;entryPerimeter=0;fontColor=#FF0000;fillColor=#008a00;strokeColor=#005700;" edge="1" parent="WIyWlLk6GJQsqaUBKTNV-1" source="l--_rwEBYW_ynLptJhpw-66" target="l--_rwEBYW_ynLptJhpw-70">
          <mxGeometry relative="1" as="geometry" />
        </mxCell>
        <mxCell id="l--_rwEBYW_ynLptJhpw-65" style="edgeStyle=orthogonalEdgeStyle;rounded=0;orthogonalLoop=1;jettySize=auto;html=1;fontColor=#FF0000;fillColor=#e51400;strokeColor=#B20000;" edge="1" parent="WIyWlLk6GJQsqaUBKTNV-1" source="l--_rwEBYW_ynLptJhpw-66" target="l--_rwEBYW_ynLptJhpw-78">
          <mxGeometry relative="1" as="geometry" />
        </mxCell>
        <mxCell id="l--_rwEBYW_ynLptJhpw-66" value="pinCodeExpireDate = getName" style="strokeWidth=2;html=1;shape=mxgraph.flowchart.decision;whiteSpace=wrap;flipV=1;fillColor=#f8cecc;strokeColor=#b85450;" vertex="1" parent="WIyWlLk6GJQsqaUBKTNV-1">
          <mxGeometry x="993.5" y="2570" width="137.5" height="100" as="geometry" />
        </mxCell>
        <mxCell id="l--_rwEBYW_ynLptJhpw-67" style="edgeStyle=orthogonalEdgeStyle;rounded=0;orthogonalLoop=1;jettySize=auto;html=1;entryX=1;entryY=0.5;entryDx=0;entryDy=0;entryPerimeter=0;fontSize=28;fontColor=#FF0000;endArrow=open;endFill=0;strokeWidth=1;fillColor=#1ba1e2;strokeColor=#006EAF;" edge="1" parent="WIyWlLk6GJQsqaUBKTNV-1" source="l--_rwEBYW_ynLptJhpw-68" target="l--_rwEBYW_ynLptJhpw-135">
          <mxGeometry relative="1" as="geometry">
            <Array as="points">
              <mxPoint x="2290" y="2560" />
              <mxPoint x="2290" y="3890" />
            </Array>
          </mxGeometry>
        </mxCell>
        <mxCell id="l--_rwEBYW_ynLptJhpw-68" value="inputMnpPreValidate.setPinCodeExpireDt(parametersIn[i].getValue() ,&quot;dd/MM/yyyy HH:mm:ss&quot;)" style="rounded=1;whiteSpace=wrap;html=1;absoluteArcSize=1;arcSize=14;strokeWidth=1;fillColor=#dae8fc;strokeColor=#6c8ebf;" vertex="1" parent="WIyWlLk6GJQsqaUBKTNV-1">
          <mxGeometry x="1269.75" y="2540" width="390" height="40" as="geometry" />
        </mxCell>
        <mxCell id="l--_rwEBYW_ynLptJhpw-69" style="edgeStyle=orthogonalEdgeStyle;rounded=0;orthogonalLoop=1;jettySize=auto;html=1;entryX=0;entryY=0.5;entryDx=0;entryDy=0;fontColor=#FF0000;fillColor=#008a00;strokeColor=#005700;" edge="1" parent="WIyWlLk6GJQsqaUBKTNV-1" source="l--_rwEBYW_ynLptJhpw-70">
          <mxGeometry relative="1" as="geometry">
            <mxPoint x="1679.7499999999995" y="2700.0000000000005" as="targetPoint" />
          </mxGeometry>
        </mxCell>
        <mxCell id="l--_rwEBYW_ynLptJhpw-70" value="getValue is null" style="strokeWidth=2;html=1;shape=mxgraph.flowchart.decision;whiteSpace=wrap;flipV=1;fillColor=#d5e8d4;strokeColor=#82b366;" vertex="1" parent="WIyWlLk6GJQsqaUBKTNV-1">
          <mxGeometry x="1269.75" y="2650" width="137.5" height="100" as="geometry" />
        </mxCell>
        <mxCell id="l--_rwEBYW_ynLptJhpw-71" value="True" style="text;html=1;align=center;verticalAlign=middle;whiteSpace=wrap;rounded=0;fontColor=#009900;" vertex="1" parent="WIyWlLk6GJQsqaUBKTNV-1">
          <mxGeometry x="1144.75" y="2590" width="60" height="30" as="geometry" />
        </mxCell>
        <mxCell id="l--_rwEBYW_ynLptJhpw-72" style="edgeStyle=orthogonalEdgeStyle;rounded=0;orthogonalLoop=1;jettySize=auto;html=1;entryX=0.5;entryY=1;entryDx=0;entryDy=0;entryPerimeter=0;fontSize=17;fontColor=#000000;endArrow=open;endFill=0;strokeWidth=1;" edge="1" parent="WIyWlLk6GJQsqaUBKTNV-1" target="l--_rwEBYW_ynLptJhpw-139">
          <mxGeometry relative="1" as="geometry">
            <mxPoint x="2172.75" y="2700.0000000000005" as="sourcePoint" />
            <mxPoint x="1065.245" y="4000" as="targetPoint" />
            <Array as="points">
              <mxPoint x="2430" y="2700" />
              <mxPoint x="2430" y="3970" />
              <mxPoint x="1062" y="3970" />
            </Array>
          </mxGeometry>
        </mxCell>
        <mxCell id="l--_rwEBYW_ynLptJhpw-73" value="errorMessage = &quot;pinCodeExpireDate Incorrect date format(dd/MM/yyyy HH:mm:ss)&quot;" style="rounded=1;whiteSpace=wrap;html=1;absoluteArcSize=1;arcSize=14;strokeWidth=1;fontColor=#FF0000;" vertex="1" parent="WIyWlLk6GJQsqaUBKTNV-1">
          <mxGeometry x="1677.87" y="2680" width="491.88" height="40" as="geometry" />
        </mxCell>
        <mxCell id="l--_rwEBYW_ynLptJhpw-74" value="False" style="text;html=1;strokeColor=none;fillColor=none;align=center;verticalAlign=middle;whiteSpace=wrap;rounded=0;fontColor=#FF0000;" vertex="1" parent="WIyWlLk6GJQsqaUBKTNV-1">
          <mxGeometry x="1059.75" y="2480" width="60" height="30" as="geometry" />
        </mxCell>
        <mxCell id="l--_rwEBYW_ynLptJhpw-75" style="edgeStyle=orthogonalEdgeStyle;rounded=0;orthogonalLoop=1;jettySize=auto;html=1;fontColor=#FF0000;fillColor=#008a00;strokeColor=#005700;" edge="1" parent="WIyWlLk6GJQsqaUBKTNV-1" source="l--_rwEBYW_ynLptJhpw-78" target="l--_rwEBYW_ynLptJhpw-80">
          <mxGeometry relative="1" as="geometry" />
        </mxCell>
        <mxCell id="l--_rwEBYW_ynLptJhpw-76" style="edgeStyle=orthogonalEdgeStyle;rounded=0;orthogonalLoop=1;jettySize=auto;html=1;entryX=0;entryY=0.5;entryDx=0;entryDy=0;entryPerimeter=0;fontColor=#FF0000;fillColor=#008a00;strokeColor=#005700;" edge="1" parent="WIyWlLk6GJQsqaUBKTNV-1" source="l--_rwEBYW_ynLptJhpw-78" target="l--_rwEBYW_ynLptJhpw-82">
          <mxGeometry relative="1" as="geometry" />
        </mxCell>
        <mxCell id="l--_rwEBYW_ynLptJhpw-77" style="edgeStyle=orthogonalEdgeStyle;rounded=0;orthogonalLoop=1;jettySize=auto;html=1;fontColor=#FF0000;fillColor=#e51400;strokeColor=#B20000;" edge="1" parent="WIyWlLk6GJQsqaUBKTNV-1" source="l--_rwEBYW_ynLptJhpw-78" target="l--_rwEBYW_ynLptJhpw-90">
          <mxGeometry relative="1" as="geometry" />
        </mxCell>
        <mxCell id="l--_rwEBYW_ynLptJhpw-78" value="channel = getName" style="strokeWidth=2;html=1;shape=mxgraph.flowchart.decision;whiteSpace=wrap;flipV=1;fillColor=#f8cecc;strokeColor=#b85450;" vertex="1" parent="WIyWlLk6GJQsqaUBKTNV-1">
          <mxGeometry x="993.5" y="2840" width="137.5" height="100" as="geometry" />
        </mxCell>
        <mxCell id="l--_rwEBYW_ynLptJhpw-79" style="edgeStyle=orthogonalEdgeStyle;rounded=0;orthogonalLoop=1;jettySize=auto;html=1;entryX=1;entryY=0.5;entryDx=0;entryDy=0;entryPerimeter=0;fontSize=28;fontColor=#FF0000;endArrow=open;endFill=0;strokeWidth=1;fillColor=#1ba1e2;strokeColor=#006EAF;" edge="1" parent="WIyWlLk6GJQsqaUBKTNV-1" source="l--_rwEBYW_ynLptJhpw-80" target="l--_rwEBYW_ynLptJhpw-135">
          <mxGeometry relative="1" as="geometry">
            <Array as="points">
              <mxPoint x="2290" y="2830" />
              <mxPoint x="2290" y="3890" />
            </Array>
          </mxGeometry>
        </mxCell>
        <mxCell id="l--_rwEBYW_ynLptJhpw-80" value="inputMnpPreValidate.setChannel(parametersIn[i].getValue())" style="rounded=1;whiteSpace=wrap;html=1;absoluteArcSize=1;arcSize=14;strokeWidth=1;fillColor=#dae8fc;strokeColor=#6c8ebf;" vertex="1" parent="WIyWlLk6GJQsqaUBKTNV-1">
          <mxGeometry x="1269.75" y="2810" width="390" height="40" as="geometry" />
        </mxCell>
        <mxCell id="l--_rwEBYW_ynLptJhpw-81" style="edgeStyle=orthogonalEdgeStyle;rounded=0;orthogonalLoop=1;jettySize=auto;html=1;entryX=0;entryY=0.5;entryDx=0;entryDy=0;fontColor=#FF0000;fillColor=#008a00;strokeColor=#005700;" edge="1" parent="WIyWlLk6GJQsqaUBKTNV-1" source="l--_rwEBYW_ynLptJhpw-82">
          <mxGeometry relative="1" as="geometry">
            <mxPoint x="1679.7499999999995" y="2970" as="targetPoint" />
          </mxGeometry>
        </mxCell>
        <mxCell id="l--_rwEBYW_ynLptJhpw-82" value="getValue is null" style="strokeWidth=2;html=1;shape=mxgraph.flowchart.decision;whiteSpace=wrap;flipV=1;fillColor=#d5e8d4;strokeColor=#82b366;" vertex="1" parent="WIyWlLk6GJQsqaUBKTNV-1">
          <mxGeometry x="1269.75" y="2920" width="137.5" height="100" as="geometry" />
        </mxCell>
        <mxCell id="l--_rwEBYW_ynLptJhpw-83" value="True" style="text;html=1;align=center;verticalAlign=middle;whiteSpace=wrap;rounded=0;fontColor=#009900;" vertex="1" parent="WIyWlLk6GJQsqaUBKTNV-1">
          <mxGeometry x="1144.75" y="2860" width="60" height="30" as="geometry" />
        </mxCell>
        <mxCell id="l--_rwEBYW_ynLptJhpw-84" style="edgeStyle=orthogonalEdgeStyle;rounded=0;orthogonalLoop=1;jettySize=auto;html=1;entryX=0.5;entryY=1;entryDx=0;entryDy=0;entryPerimeter=0;fontSize=17;fontColor=#000000;endArrow=open;endFill=0;strokeWidth=1;" edge="1" parent="WIyWlLk6GJQsqaUBKTNV-1" target="l--_rwEBYW_ynLptJhpw-139">
          <mxGeometry relative="1" as="geometry">
            <mxPoint x="1941.75" y="2970" as="sourcePoint" />
            <mxPoint x="1064.245" y="4000" as="targetPoint" />
            <Array as="points">
              <mxPoint x="2430" y="2970" />
              <mxPoint x="2430" y="3970" />
              <mxPoint x="1062" y="3970" />
            </Array>
          </mxGeometry>
        </mxCell>
        <mxCell id="l--_rwEBYW_ynLptJhpw-85" value="errorMessage = &quot;channel is require&quot;" style="rounded=1;whiteSpace=wrap;html=1;absoluteArcSize=1;arcSize=14;strokeWidth=1;fontColor=#FF0000;" vertex="1" parent="WIyWlLk6GJQsqaUBKTNV-1">
          <mxGeometry x="1677.87" y="2950" width="261.88" height="40" as="geometry" />
        </mxCell>
        <mxCell id="l--_rwEBYW_ynLptJhpw-86" value="False" style="text;html=1;strokeColor=none;fillColor=none;align=center;verticalAlign=middle;whiteSpace=wrap;rounded=0;fontColor=#FF0000;" vertex="1" parent="WIyWlLk6GJQsqaUBKTNV-1">
          <mxGeometry x="1059.75" y="2730" width="60" height="30" as="geometry" />
        </mxCell>
        <mxCell id="l--_rwEBYW_ynLptJhpw-87" style="edgeStyle=orthogonalEdgeStyle;rounded=0;orthogonalLoop=1;jettySize=auto;html=1;fontColor=#FF0000;fillColor=#008a00;strokeColor=#005700;" edge="1" parent="WIyWlLk6GJQsqaUBKTNV-1" source="l--_rwEBYW_ynLptJhpw-90" target="l--_rwEBYW_ynLptJhpw-92">
          <mxGeometry relative="1" as="geometry" />
        </mxCell>
        <mxCell id="l--_rwEBYW_ynLptJhpw-88" style="edgeStyle=orthogonalEdgeStyle;rounded=0;orthogonalLoop=1;jettySize=auto;html=1;entryX=0;entryY=0.5;entryDx=0;entryDy=0;entryPerimeter=0;fontColor=#FF0000;fillColor=#008a00;strokeColor=#005700;" edge="1" parent="WIyWlLk6GJQsqaUBKTNV-1" source="l--_rwEBYW_ynLptJhpw-90" target="l--_rwEBYW_ynLptJhpw-94">
          <mxGeometry relative="1" as="geometry" />
        </mxCell>
        <mxCell id="l--_rwEBYW_ynLptJhpw-89" style="edgeStyle=orthogonalEdgeStyle;rounded=0;orthogonalLoop=1;jettySize=auto;html=1;fontColor=#FF0000;fillColor=#e51400;strokeColor=#B20000;" edge="1" parent="WIyWlLk6GJQsqaUBKTNV-1" source="l--_rwEBYW_ynLptJhpw-90" target="l--_rwEBYW_ynLptJhpw-101">
          <mxGeometry relative="1" as="geometry" />
        </mxCell>
        <mxCell id="l--_rwEBYW_ynLptJhpw-90" value="requestDate = getName" style="strokeWidth=2;html=1;shape=mxgraph.flowchart.decision;whiteSpace=wrap;flipV=1;fillColor=#f8cecc;strokeColor=#b85450;" vertex="1" parent="WIyWlLk6GJQsqaUBKTNV-1">
          <mxGeometry x="993.5" y="3100" width="137.5" height="100" as="geometry" />
        </mxCell>
        <mxCell id="l--_rwEBYW_ynLptJhpw-91" style="edgeStyle=orthogonalEdgeStyle;rounded=0;orthogonalLoop=1;jettySize=auto;html=1;entryX=1;entryY=0.5;entryDx=0;entryDy=0;entryPerimeter=0;fontSize=28;fontColor=#FF0000;endArrow=open;endFill=0;strokeWidth=1;fillColor=#1ba1e2;strokeColor=#006EAF;" edge="1" parent="WIyWlLk6GJQsqaUBKTNV-1" source="l--_rwEBYW_ynLptJhpw-92" target="l--_rwEBYW_ynLptJhpw-135">
          <mxGeometry relative="1" as="geometry">
            <Array as="points">
              <mxPoint x="2290" y="3090" />
              <mxPoint x="2290" y="3890" />
            </Array>
          </mxGeometry>
        </mxCell>
        <mxCell id="l--_rwEBYW_ynLptJhpw-92" value="inputMnpPreValidate.setRequestDt(parametersIn[i].getValue(), &quot;dd/MM/yyyy HH:mm:ss&quot;)" style="rounded=1;whiteSpace=wrap;html=1;absoluteArcSize=1;arcSize=14;strokeWidth=1;fillColor=#dae8fc;strokeColor=#6c8ebf;" vertex="1" parent="WIyWlLk6GJQsqaUBKTNV-1">
          <mxGeometry x="1269.75" y="3070" width="490" height="40" as="geometry" />
        </mxCell>
        <mxCell id="l--_rwEBYW_ynLptJhpw-93" style="edgeStyle=orthogonalEdgeStyle;rounded=0;orthogonalLoop=1;jettySize=auto;html=1;entryX=0;entryY=0.5;entryDx=0;entryDy=0;fontColor=#FF0000;fillColor=#008a00;strokeColor=#005700;" edge="1" parent="WIyWlLk6GJQsqaUBKTNV-1" source="l--_rwEBYW_ynLptJhpw-94">
          <mxGeometry relative="1" as="geometry">
            <mxPoint x="1679.7499999999995" y="3230" as="targetPoint" />
          </mxGeometry>
        </mxCell>
        <mxCell id="l--_rwEBYW_ynLptJhpw-94" value="getValue is null" style="strokeWidth=2;html=1;shape=mxgraph.flowchart.decision;whiteSpace=wrap;flipV=1;fillColor=#d5e8d4;strokeColor=#82b366;" vertex="1" parent="WIyWlLk6GJQsqaUBKTNV-1">
          <mxGeometry x="1269.75" y="3180" width="137.5" height="100" as="geometry" />
        </mxCell>
        <mxCell id="l--_rwEBYW_ynLptJhpw-95" value="True" style="text;html=1;align=center;verticalAlign=middle;whiteSpace=wrap;rounded=0;fontColor=#009900;" vertex="1" parent="WIyWlLk6GJQsqaUBKTNV-1">
          <mxGeometry x="1144.75" y="3120" width="60" height="30" as="geometry" />
        </mxCell>
        <mxCell id="l--_rwEBYW_ynLptJhpw-96" style="edgeStyle=orthogonalEdgeStyle;rounded=0;orthogonalLoop=1;jettySize=auto;html=1;entryX=0.5;entryY=1;entryDx=0;entryDy=0;entryPerimeter=0;fontSize=17;fontColor=#000000;endArrow=open;endFill=0;strokeWidth=1;" edge="1" parent="WIyWlLk6GJQsqaUBKTNV-1" source="l--_rwEBYW_ynLptJhpw-97" target="l--_rwEBYW_ynLptJhpw-139">
          <mxGeometry relative="1" as="geometry">
            <Array as="points">
              <mxPoint x="2430" y="3230" />
              <mxPoint x="2430" y="3970" />
              <mxPoint x="1062" y="3970" />
            </Array>
          </mxGeometry>
        </mxCell>
        <mxCell id="l--_rwEBYW_ynLptJhpw-97" value="errorMessage = &quot;requestDate Incorrect date format(dd/MM/yyyy HH:mm:ss)&quot;" style="rounded=1;whiteSpace=wrap;html=1;absoluteArcSize=1;arcSize=14;strokeWidth=1;fontColor=#FF0000;" vertex="1" parent="WIyWlLk6GJQsqaUBKTNV-1">
          <mxGeometry x="1677.87" y="3210" width="491.88" height="40" as="geometry" />
        </mxCell>
        <mxCell id="l--_rwEBYW_ynLptJhpw-98" value="False" style="text;html=1;strokeColor=none;fillColor=none;align=center;verticalAlign=middle;whiteSpace=wrap;rounded=0;fontColor=#FF0000;" vertex="1" parent="WIyWlLk6GJQsqaUBKTNV-1">
          <mxGeometry x="1059.75" y="3010" width="60" height="30" as="geometry" />
        </mxCell>
        <mxCell id="l--_rwEBYW_ynLptJhpw-99" style="edgeStyle=orthogonalEdgeStyle;rounded=0;orthogonalLoop=1;jettySize=auto;html=1;entryX=0;entryY=0.5;entryDx=0;entryDy=0;entryPerimeter=0;fontColor=#FF0000;fillColor=#008a00;strokeColor=#005700;" edge="1" parent="WIyWlLk6GJQsqaUBKTNV-1" source="l--_rwEBYW_ynLptJhpw-101" target="l--_rwEBYW_ynLptJhpw-105">
          <mxGeometry relative="1" as="geometry" />
        </mxCell>
        <mxCell id="l--_rwEBYW_ynLptJhpw-100" style="edgeStyle=orthogonalEdgeStyle;rounded=0;orthogonalLoop=1;jettySize=auto;html=1;entryX=0.5;entryY=1;entryDx=0;entryDy=0;entryPerimeter=0;fillColor=#e51400;strokeColor=#B20000;" edge="1" parent="WIyWlLk6GJQsqaUBKTNV-1" source="l--_rwEBYW_ynLptJhpw-101" target="l--_rwEBYW_ynLptJhpw-119">
          <mxGeometry relative="1" as="geometry" />
        </mxCell>
        <mxCell id="l--_rwEBYW_ynLptJhpw-101" value="overwriteStatus = getName" style="strokeWidth=2;html=1;shape=mxgraph.flowchart.decision;whiteSpace=wrap;flipV=1;fillColor=#f8cecc;strokeColor=#b85450;" vertex="1" parent="WIyWlLk6GJQsqaUBKTNV-1">
          <mxGeometry x="993.5" y="3360" width="137.5" height="100" as="geometry" />
        </mxCell>
        <mxCell id="l--_rwEBYW_ynLptJhpw-102" value="True" style="text;html=1;align=center;verticalAlign=middle;whiteSpace=wrap;rounded=0;fontColor=#009900;" vertex="1" parent="WIyWlLk6GJQsqaUBKTNV-1">
          <mxGeometry x="1131" y="3370" width="60" height="30" as="geometry" />
        </mxCell>
        <mxCell id="l--_rwEBYW_ynLptJhpw-103" style="edgeStyle=orthogonalEdgeStyle;rounded=0;orthogonalLoop=1;jettySize=auto;html=1;entryX=0;entryY=0.5;entryDx=0;entryDy=0;fontColor=#FF0000;fillColor=#008a00;strokeColor=#005700;exitX=0.5;exitY=1;exitDx=0;exitDy=0;exitPerimeter=0;" edge="1" parent="WIyWlLk6GJQsqaUBKTNV-1" source="l--_rwEBYW_ynLptJhpw-105" target="l--_rwEBYW_ynLptJhpw-107">
          <mxGeometry relative="1" as="geometry" />
        </mxCell>
        <mxCell id="l--_rwEBYW_ynLptJhpw-104" style="edgeStyle=orthogonalEdgeStyle;rounded=0;orthogonalLoop=1;jettySize=auto;html=1;fontColor=#FF0000;entryX=0;entryY=0.5;entryDx=0;entryDy=0;entryPerimeter=0;fillColor=#e51400;strokeColor=#B20000;exitX=0.5;exitY=0;exitDx=0;exitDy=0;exitPerimeter=0;" edge="1" parent="WIyWlLk6GJQsqaUBKTNV-1" source="l--_rwEBYW_ynLptJhpw-105" target="l--_rwEBYW_ynLptJhpw-109">
          <mxGeometry relative="1" as="geometry">
            <mxPoint x="1479.7499999999995" y="3505.0588235294117" as="targetPoint" />
          </mxGeometry>
        </mxCell>
        <mxCell id="l--_rwEBYW_ynLptJhpw-105" value="getValue is null" style="strokeWidth=2;html=1;shape=mxgraph.flowchart.decision;whiteSpace=wrap;flipV=1;fillColor=#d5e8d4;strokeColor=#82b366;" vertex="1" parent="WIyWlLk6GJQsqaUBKTNV-1">
          <mxGeometry x="1269.75" y="3360" width="137.5" height="100" as="geometry" />
        </mxCell>
        <mxCell id="l--_rwEBYW_ynLptJhpw-106" style="edgeStyle=orthogonalEdgeStyle;rounded=0;orthogonalLoop=1;jettySize=auto;html=1;entryX=1;entryY=0.5;entryDx=0;entryDy=0;entryPerimeter=0;fontSize=28;fontColor=#FF0000;endArrow=open;endFill=0;strokeWidth=1;fillColor=#1ba1e2;strokeColor=#006EAF;" edge="1" parent="WIyWlLk6GJQsqaUBKTNV-1" source="l--_rwEBYW_ynLptJhpw-107" target="l--_rwEBYW_ynLptJhpw-135">
          <mxGeometry relative="1" as="geometry">
            <Array as="points">
              <mxPoint x="2290" y="3330" />
              <mxPoint x="2290" y="3890" />
            </Array>
          </mxGeometry>
        </mxCell>
        <mxCell id="l--_rwEBYW_ynLptJhpw-107" value="inputMnpPreValidate.setOverwriteStatusCd(parametersIn[i].getValue())" style="rounded=1;whiteSpace=wrap;html=1;absoluteArcSize=1;arcSize=14;strokeWidth=1;fillColor=#dae8fc;strokeColor=#6c8ebf;" vertex="1" parent="WIyWlLk6GJQsqaUBKTNV-1">
          <mxGeometry x="1479.75" y="3310" width="490" height="40" as="geometry" />
        </mxCell>
        <mxCell id="l--_rwEBYW_ynLptJhpw-108" style="edgeStyle=orthogonalEdgeStyle;rounded=0;orthogonalLoop=1;jettySize=auto;html=1;entryX=0;entryY=0.5;entryDx=0;entryDy=0;fontColor=#FF0000;fillColor=#008a00;strokeColor=#005700;" edge="1" parent="WIyWlLk6GJQsqaUBKTNV-1" target="l--_rwEBYW_ynLptJhpw-111">
          <mxGeometry relative="1" as="geometry">
            <mxPoint x="1639.7499999999995" y="3495" as="sourcePoint" />
          </mxGeometry>
        </mxCell>
        <mxCell id="l--_rwEBYW_ynLptJhpw-109" value="Approve != getValue &amp;amp;&amp;amp; Reject != getValue" style="strokeWidth=2;html=1;shape=mxgraph.flowchart.decision;whiteSpace=wrap;flipV=1;fillColor=#d5e8d4;strokeColor=#82b366;" vertex="1" parent="WIyWlLk6GJQsqaUBKTNV-1">
          <mxGeometry x="1479.75" y="3440" width="160" height="110" as="geometry" />
        </mxCell>
        <mxCell id="l--_rwEBYW_ynLptJhpw-110" style="edgeStyle=orthogonalEdgeStyle;rounded=0;orthogonalLoop=1;jettySize=auto;html=1;entryX=0.5;entryY=1;entryDx=0;entryDy=0;entryPerimeter=0;fontSize=17;fontColor=#000000;endArrow=open;endFill=0;strokeWidth=1;" edge="1" parent="WIyWlLk6GJQsqaUBKTNV-1" source="l--_rwEBYW_ynLptJhpw-111" target="l--_rwEBYW_ynLptJhpw-139">
          <mxGeometry relative="1" as="geometry">
            <Array as="points">
              <mxPoint x="2430" y="3495" />
              <mxPoint x="2430" y="3970" />
              <mxPoint x="1062" y="3970" />
            </Array>
          </mxGeometry>
        </mxCell>
        <mxCell id="l--_rwEBYW_ynLptJhpw-111" value="errorMessage = &quot;requestDate Incorrect date format(dd/MM/yyyy HH:mm:ss)&quot;" style="rounded=1;whiteSpace=wrap;html=1;absoluteArcSize=1;arcSize=14;strokeWidth=1;fontColor=#FF0000;" vertex="1" parent="WIyWlLk6GJQsqaUBKTNV-1">
          <mxGeometry x="1739.75" y="3475" width="440" height="40" as="geometry" />
        </mxCell>
        <mxCell id="l--_rwEBYW_ynLptJhpw-112" value="True" style="text;html=1;align=center;verticalAlign=middle;whiteSpace=wrap;rounded=0;fontColor=#009900;" vertex="1" parent="WIyWlLk6GJQsqaUBKTNV-1">
          <mxGeometry x="1389.75" y="3330" width="60" height="30" as="geometry" />
        </mxCell>
        <mxCell id="l--_rwEBYW_ynLptJhpw-113" value="False" style="text;html=1;strokeColor=none;fillColor=none;align=center;verticalAlign=middle;whiteSpace=wrap;rounded=0;fontColor=#FF0000;" vertex="1" parent="WIyWlLk6GJQsqaUBKTNV-1">
          <mxGeometry x="1389.75" y="3470" width="60" height="30" as="geometry" />
        </mxCell>
        <mxCell id="l--_rwEBYW_ynLptJhpw-114" value="False" style="text;html=1;strokeColor=none;fillColor=none;align=center;verticalAlign=middle;whiteSpace=wrap;rounded=0;fontColor=#FF0000;" vertex="1" parent="WIyWlLk6GJQsqaUBKTNV-1">
          <mxGeometry x="1059.75" y="3260" width="60" height="30" as="geometry" />
        </mxCell>
        <mxCell id="l--_rwEBYW_ynLptJhpw-115" value="True" style="text;html=1;align=center;verticalAlign=middle;whiteSpace=wrap;rounded=0;fontColor=#009900;" vertex="1" parent="WIyWlLk6GJQsqaUBKTNV-1">
          <mxGeometry x="1659.75" y="3460" width="60" height="30" as="geometry" />
        </mxCell>
        <mxCell id="l--_rwEBYW_ynLptJhpw-116" style="edgeStyle=orthogonalEdgeStyle;rounded=0;orthogonalLoop=1;jettySize=auto;html=1;entryX=0;entryY=0.5;entryDx=0;entryDy=0;fontColor=#FF0000;fillColor=#008a00;strokeColor=#005700;" edge="1" parent="WIyWlLk6GJQsqaUBKTNV-1" source="l--_rwEBYW_ynLptJhpw-119" target="l--_rwEBYW_ynLptJhpw-123">
          <mxGeometry relative="1" as="geometry">
            <mxPoint x="1269.75" y="3710" as="targetPoint" />
          </mxGeometry>
        </mxCell>
        <mxCell id="l--_rwEBYW_ynLptJhpw-117" style="edgeStyle=orthogonalEdgeStyle;rounded=0;orthogonalLoop=1;jettySize=auto;html=1;entryX=0;entryY=0.5;entryDx=0;entryDy=0;entryPerimeter=0;fillColor=#008a00;strokeColor=#005700;" edge="1" parent="WIyWlLk6GJQsqaUBKTNV-1" source="l--_rwEBYW_ynLptJhpw-119" target="l--_rwEBYW_ynLptJhpw-125">
          <mxGeometry relative="1" as="geometry" />
        </mxCell>
        <mxCell id="l--_rwEBYW_ynLptJhpw-118" style="edgeStyle=orthogonalEdgeStyle;rounded=0;orthogonalLoop=1;jettySize=auto;html=1;fillColor=#e51400;strokeColor=#B20000;" edge="1" parent="WIyWlLk6GJQsqaUBKTNV-1" source="l--_rwEBYW_ynLptJhpw-119" target="l--_rwEBYW_ynLptJhpw-135">
          <mxGeometry relative="1" as="geometry" />
        </mxCell>
        <mxCell id="l--_rwEBYW_ynLptJhpw-119" value="pinCodeEffEndDate = getName" style="strokeWidth=2;html=1;shape=mxgraph.flowchart.decision;whiteSpace=wrap;flipV=1;fillColor=#f8cecc;strokeColor=#b85450;" vertex="1" parent="WIyWlLk6GJQsqaUBKTNV-1">
          <mxGeometry x="993.5" y="3660" width="137.5" height="100" as="geometry" />
        </mxCell>
        <mxCell id="l--_rwEBYW_ynLptJhpw-120" value="True" style="text;html=1;align=center;verticalAlign=middle;whiteSpace=wrap;rounded=0;fontColor=#009900;" vertex="1" parent="WIyWlLk6GJQsqaUBKTNV-1">
          <mxGeometry x="1131" y="3670" width="60" height="30" as="geometry" />
        </mxCell>
        <mxCell id="l--_rwEBYW_ynLptJhpw-121" value="False" style="text;html=1;strokeColor=none;fillColor=none;align=center;verticalAlign=middle;whiteSpace=wrap;rounded=0;fontColor=#FF0000;" vertex="1" parent="WIyWlLk6GJQsqaUBKTNV-1">
          <mxGeometry x="1059.75" y="3540" width="60" height="30" as="geometry" />
        </mxCell>
        <mxCell id="l--_rwEBYW_ynLptJhpw-122" style="edgeStyle=orthogonalEdgeStyle;rounded=0;orthogonalLoop=1;jettySize=auto;html=1;entryX=1;entryY=0.5;entryDx=0;entryDy=0;entryPerimeter=0;fontSize=28;fontColor=#FF0000;endArrow=open;endFill=0;strokeWidth=1;fillColor=#1ba1e2;strokeColor=#006EAF;" edge="1" parent="WIyWlLk6GJQsqaUBKTNV-1" source="l--_rwEBYW_ynLptJhpw-123" target="l--_rwEBYW_ynLptJhpw-135">
          <mxGeometry relative="1" as="geometry">
            <Array as="points">
              <mxPoint x="2290" y="3625" />
              <mxPoint x="2290" y="3890" />
            </Array>
          </mxGeometry>
        </mxCell>
        <mxCell id="l--_rwEBYW_ynLptJhpw-123" value="inputMnpPreValidate.setPinCodeEffEndDt(parametersIn[i].getValue(), &quot;dd/MM/yyyy HH:mm:ss&quot;)" style="rounded=1;whiteSpace=wrap;html=1;absoluteArcSize=1;arcSize=14;strokeWidth=1;fillColor=#dae8fc;strokeColor=#6c8ebf;" vertex="1" parent="WIyWlLk6GJQsqaUBKTNV-1">
          <mxGeometry x="1269.75" y="3605" width="540" height="40" as="geometry" />
        </mxCell>
        <mxCell id="l--_rwEBYW_ynLptJhpw-124" style="edgeStyle=orthogonalEdgeStyle;rounded=0;orthogonalLoop=1;jettySize=auto;html=1;entryX=0;entryY=0.5;entryDx=0;entryDy=0;fontColor=#FF0000;fillColor=#008a00;strokeColor=#005700;" edge="1" parent="WIyWlLk6GJQsqaUBKTNV-1" source="l--_rwEBYW_ynLptJhpw-125">
          <mxGeometry relative="1" as="geometry">
            <mxPoint x="1679.7499999999995" y="3765" as="targetPoint" />
          </mxGeometry>
        </mxCell>
        <mxCell id="l--_rwEBYW_ynLptJhpw-125" value="getValue is null" style="strokeWidth=2;html=1;shape=mxgraph.flowchart.decision;whiteSpace=wrap;flipV=1;fillColor=#d5e8d4;strokeColor=#82b366;" vertex="1" parent="WIyWlLk6GJQsqaUBKTNV-1">
          <mxGeometry x="1269.75" y="3715" width="137.5" height="100" as="geometry" />
        </mxCell>
        <mxCell id="l--_rwEBYW_ynLptJhpw-126" style="edgeStyle=orthogonalEdgeStyle;rounded=0;orthogonalLoop=1;jettySize=auto;html=1;entryX=0.5;entryY=1;entryDx=0;entryDy=0;entryPerimeter=0;fontSize=17;fontColor=#000000;endArrow=open;endFill=0;strokeWidth=1;" edge="1" parent="WIyWlLk6GJQsqaUBKTNV-1" source="l--_rwEBYW_ynLptJhpw-127" target="l--_rwEBYW_ynLptJhpw-139">
          <mxGeometry relative="1" as="geometry">
            <Array as="points">
              <mxPoint x="2430" y="3765" />
              <mxPoint x="2430" y="3970" />
              <mxPoint x="1062" y="3970" />
            </Array>
          </mxGeometry>
        </mxCell>
        <mxCell id="l--_rwEBYW_ynLptJhpw-127" value="errorMessage = &quot;pinCodeEffEndDate is require&quot;" style="rounded=1;whiteSpace=wrap;html=1;absoluteArcSize=1;arcSize=14;strokeWidth=1;fontColor=#FF0000;" vertex="1" parent="WIyWlLk6GJQsqaUBKTNV-1">
          <mxGeometry x="1677.87" y="3745" width="491.88" height="40" as="geometry" />
        </mxCell>
        <mxCell id="l--_rwEBYW_ynLptJhpw-128" value="True" style="text;html=1;align=center;verticalAlign=middle;whiteSpace=wrap;rounded=0;fontColor=#009900;" vertex="1" parent="WIyWlLk6GJQsqaUBKTNV-1">
          <mxGeometry x="1489.75" y="2150" width="60" height="30" as="geometry" />
        </mxCell>
        <mxCell id="l--_rwEBYW_ynLptJhpw-129" value="True" style="text;html=1;align=center;verticalAlign=middle;whiteSpace=wrap;rounded=0;fontColor=#009900;" vertex="1" parent="WIyWlLk6GJQsqaUBKTNV-1">
          <mxGeometry x="1489.75" y="2410" width="60" height="30" as="geometry" />
        </mxCell>
        <mxCell id="l--_rwEBYW_ynLptJhpw-130" value="True" style="text;html=1;align=center;verticalAlign=middle;whiteSpace=wrap;rounded=0;fontColor=#009900;" vertex="1" parent="WIyWlLk6GJQsqaUBKTNV-1">
          <mxGeometry x="1484.75" y="2670" width="60" height="30" as="geometry" />
        </mxCell>
        <mxCell id="l--_rwEBYW_ynLptJhpw-131" value="True" style="text;html=1;align=center;verticalAlign=middle;whiteSpace=wrap;rounded=0;fontColor=#009900;" vertex="1" parent="WIyWlLk6GJQsqaUBKTNV-1">
          <mxGeometry x="1489.75" y="2940" width="60" height="30" as="geometry" />
        </mxCell>
        <mxCell id="l--_rwEBYW_ynLptJhpw-132" value="True" style="text;html=1;align=center;verticalAlign=middle;whiteSpace=wrap;rounded=0;fontColor=#009900;" vertex="1" parent="WIyWlLk6GJQsqaUBKTNV-1">
          <mxGeometry x="1489.75" y="3200" width="60" height="30" as="geometry" />
        </mxCell>
        <mxCell id="l--_rwEBYW_ynLptJhpw-133" value="True" style="text;html=1;align=center;verticalAlign=middle;whiteSpace=wrap;rounded=0;fontColor=#009900;" vertex="1" parent="WIyWlLk6GJQsqaUBKTNV-1">
          <mxGeometry x="1499.75" y="3740" width="60" height="30" as="geometry" />
        </mxCell>
        <mxCell id="l--_rwEBYW_ynLptJhpw-134" value="" style="edgeStyle=orthogonalEdgeStyle;rounded=0;orthogonalLoop=1;jettySize=auto;html=1;strokeWidth=1;" edge="1" parent="WIyWlLk6GJQsqaUBKTNV-1" source="l--_rwEBYW_ynLptJhpw-135" target="l--_rwEBYW_ynLptJhpw-139">
          <mxGeometry relative="1" as="geometry" />
        </mxCell>
        <mxCell id="l--_rwEBYW_ynLptJhpw-135" value="" style="strokeWidth=2;html=1;shape=mxgraph.flowchart.start_2;whiteSpace=wrap;fillColor=#fff2cc;strokeColor=#d6b656;" vertex="1" parent="WIyWlLk6GJQsqaUBKTNV-1">
          <mxGeometry x="1043.75" y="3870" width="37" height="40" as="geometry" />
        </mxCell>
        <mxCell id="l--_rwEBYW_ynLptJhpw-136" value="" style="edgeStyle=orthogonalEdgeStyle;rounded=0;orthogonalLoop=1;jettySize=auto;html=1;strokeWidth=1;fillColor=#008a00;strokeColor=#005700;" edge="1" parent="WIyWlLk6GJQsqaUBKTNV-1" source="l--_rwEBYW_ynLptJhpw-139" target="l--_rwEBYW_ynLptJhpw-195">
          <mxGeometry relative="1" as="geometry" />
        </mxCell>
        <mxCell id="l--_rwEBYW_ynLptJhpw-137" style="edgeStyle=orthogonalEdgeStyle;rounded=0;orthogonalLoop=1;jettySize=auto;html=1;fontSize=17;fontColor=#000000;endArrow=open;endFill=0;strokeWidth=1;startArrow=none;" edge="1" parent="WIyWlLk6GJQsqaUBKTNV-1" source="l--_rwEBYW_ynLptJhpw-195">
          <mxGeometry relative="1" as="geometry">
            <mxPoint x="2510" y="1920.0000000000005" as="targetPoint" />
            <Array as="points">
              <mxPoint x="2480" y="4102" />
              <mxPoint x="2480" y="1920" />
            </Array>
          </mxGeometry>
        </mxCell>
        <mxCell id="l--_rwEBYW_ynLptJhpw-138" style="edgeStyle=orthogonalEdgeStyle;rounded=0;orthogonalLoop=1;jettySize=auto;html=1;entryX=0;entryY=0.5;entryDx=0;entryDy=0;entryPerimeter=0;fontSize=42;fontColor=#FF0000;endArrow=open;endFill=0;strokeWidth=1;fillColor=#e51400;strokeColor=#B20000;" edge="1" parent="WIyWlLk6GJQsqaUBKTNV-1" source="l--_rwEBYW_ynLptJhpw-139" target="l--_rwEBYW_ynLptJhpw-150">
          <mxGeometry relative="1" as="geometry">
            <Array as="points">
              <mxPoint x="1062" y="4290" />
              <mxPoint x="2480" y="4290" />
              <mxPoint x="2480" y="1920" />
            </Array>
          </mxGeometry>
        </mxCell>
        <mxCell id="l--_rwEBYW_ynLptJhpw-139" value="inputMnpPreValidate is not null &amp;amp;&amp;amp; getOverwriteStatusCd = Reject" style="strokeWidth=2;html=1;shape=mxgraph.flowchart.decision;whiteSpace=wrap;flipV=1;fillColor=#d5e8d4;strokeColor=#82b366;" vertex="1" parent="WIyWlLk6GJQsqaUBKTNV-1">
          <mxGeometry x="949.12" y="4022" width="226.25" height="160" as="geometry" />
        </mxCell>
        <mxCell id="l--_rwEBYW_ynLptJhpw-140" style="edgeStyle=orthogonalEdgeStyle;rounded=0;orthogonalLoop=1;jettySize=auto;html=1;entryX=0;entryY=0.5;entryDx=0;entryDy=0;strokeWidth=1;fillColor=#008a00;strokeColor=#005700;" edge="1" parent="WIyWlLk6GJQsqaUBKTNV-1" source="l--_rwEBYW_ynLptJhpw-195" target="l--_rwEBYW_ynLptJhpw-142">
          <mxGeometry relative="1" as="geometry" />
        </mxCell>
        <mxCell id="l--_rwEBYW_ynLptJhpw-141" value="True" style="text;html=1;align=center;verticalAlign=middle;whiteSpace=wrap;rounded=0;fontColor=#009900;" vertex="1" parent="WIyWlLk6GJQsqaUBKTNV-1">
          <mxGeometry x="1191" y="4072" width="60" height="30" as="geometry" />
        </mxCell>
        <mxCell id="l--_rwEBYW_ynLptJhpw-142" value="errorMessage = &quot;If status of overwriteStatus equal Rejected  then overwriteXXX require&quot;" style="rounded=1;whiteSpace=wrap;html=1;absoluteArcSize=1;arcSize=14;strokeWidth=1;fontColor=#FF0000;" vertex="1" parent="WIyWlLk6GJQsqaUBKTNV-1">
          <mxGeometry x="1830" y="4082" width="491.88" height="40" as="geometry" />
        </mxCell>
        <mxCell id="l--_rwEBYW_ynLptJhpw-143" value="True" style="text;html=1;align=center;verticalAlign=middle;whiteSpace=wrap;rounded=0;fontColor=#009900;" vertex="1" parent="WIyWlLk6GJQsqaUBKTNV-1">
          <mxGeometry x="1650" y="4072" width="60" height="30" as="geometry" />
        </mxCell>
        <mxCell id="l--_rwEBYW_ynLptJhpw-144" value="" style="edgeStyle=orthogonalEdgeStyle;rounded=0;orthogonalLoop=1;jettySize=auto;html=1;endArrow=open;endFill=0;strokeWidth=1;" edge="1" parent="WIyWlLk6GJQsqaUBKTNV-1" source="l--_rwEBYW_ynLptJhpw-145" target="l--_rwEBYW_ynLptJhpw-147">
          <mxGeometry relative="1" as="geometry" />
        </mxCell>
        <mxCell id="l--_rwEBYW_ynLptJhpw-145" value="logger.info(mobileNo. + Date)" style="rounded=1;whiteSpace=wrap;html=1;absoluteArcSize=1;arcSize=14;strokeWidth=1;fillColor=#fff2cc;gradientColor=#ffd966;strokeColor=#d6b656;" vertex="1" parent="WIyWlLk6GJQsqaUBKTNV-1">
          <mxGeometry x="2678.44" y="5670" width="260" height="50" as="geometry" />
        </mxCell>
        <mxCell id="l--_rwEBYW_ynLptJhpw-146" value="False" style="text;html=1;strokeColor=none;fillColor=none;align=center;verticalAlign=middle;whiteSpace=wrap;rounded=0;fontColor=#FF0000;" vertex="1" parent="WIyWlLk6GJQsqaUBKTNV-1">
          <mxGeometry x="1059.75" y="4187" width="60" height="30" as="geometry" />
        </mxCell>
        <mxCell id="l--_rwEBYW_ynLptJhpw-147" value="return sffResponse" style="strokeWidth=2;html=1;shape=mxgraph.flowchart.terminator;whiteSpace=wrap;fillColor=#647687;fontColor=#ffffff;strokeColor=#314354;labelBackgroundColor=none;" vertex="1" parent="WIyWlLk6GJQsqaUBKTNV-1">
          <mxGeometry x="2743.44" y="5810" width="130" height="60" as="geometry" />
        </mxCell>
        <mxCell id="l--_rwEBYW_ynLptJhpw-148" style="edgeStyle=orthogonalEdgeStyle;rounded=0;orthogonalLoop=1;jettySize=auto;html=1;entryX=0.5;entryY=0;entryDx=0;entryDy=0;fontSize=17;fontColor=#000000;endArrow=open;endFill=0;strokeWidth=1;fillColor=#008a00;strokeColor=#005700;" edge="1" parent="WIyWlLk6GJQsqaUBKTNV-1" source="l--_rwEBYW_ynLptJhpw-150" target="l--_rwEBYW_ynLptJhpw-152">
          <mxGeometry relative="1" as="geometry" />
        </mxCell>
        <mxCell id="l--_rwEBYW_ynLptJhpw-149" style="edgeStyle=orthogonalEdgeStyle;rounded=0;orthogonalLoop=1;jettySize=auto;html=1;fontSize=42;fontColor=#FF0000;endArrow=open;endFill=0;strokeWidth=1;entryX=0.5;entryY=0;entryDx=0;entryDy=0;fillColor=#e51400;strokeColor=#B20000;" edge="1" parent="WIyWlLk6GJQsqaUBKTNV-1" source="l--_rwEBYW_ynLptJhpw-150" target="l--_rwEBYW_ynLptJhpw-321">
          <mxGeometry relative="1" as="geometry">
            <mxPoint x="3160" y="4305" as="targetPoint" />
            <Array as="points">
              <mxPoint x="2589" y="4250" />
              <mxPoint x="3300" y="4250" />
            </Array>
          </mxGeometry>
        </mxCell>
        <mxCell id="l--_rwEBYW_ynLptJhpw-150" value="errorMessage.isEmpty()" style="strokeWidth=2;html=1;shape=mxgraph.flowchart.decision;whiteSpace=wrap;flipV=1;fillColor=#d5e8d4;strokeColor=#82b366;" vertex="1" parent="WIyWlLk6GJQsqaUBKTNV-1">
          <mxGeometry x="2510" y="1865" width="158.75" height="110" as="geometry" />
        </mxCell>
        <mxCell id="l--_rwEBYW_ynLptJhpw-151" value="" style="edgeStyle=orthogonalEdgeStyle;rounded=0;orthogonalLoop=1;jettySize=auto;html=1;endArrow=open;endFill=0;strokeWidth=1;" edge="1" parent="WIyWlLk6GJQsqaUBKTNV-1" source="l--_rwEBYW_ynLptJhpw-152" target="l--_rwEBYW_ynLptJhpw-155">
          <mxGeometry relative="1" as="geometry" />
        </mxCell>
        <mxCell id="l--_rwEBYW_ynLptJhpw-152" value="Date currentDate = SFFDataUtility.getCurrentDate()" style="rounded=1;whiteSpace=wrap;html=1;absoluteArcSize=1;arcSize=14;strokeWidth=1;fillColor=#dae8fc;strokeColor=#6c8ebf;" vertex="1" parent="WIyWlLk6GJQsqaUBKTNV-1">
          <mxGeometry x="2753.43" y="1980" width="390" height="40" as="geometry" />
        </mxCell>
        <mxCell id="l--_rwEBYW_ynLptJhpw-153" value="True" style="text;html=1;align=center;verticalAlign=middle;whiteSpace=wrap;rounded=0;fontColor=#009900;" vertex="1" parent="WIyWlLk6GJQsqaUBKTNV-1">
          <mxGeometry x="2690" y="1890" width="60" height="30" as="geometry" />
        </mxCell>
        <mxCell id="l--_rwEBYW_ynLptJhpw-154" value="" style="edgeStyle=orthogonalEdgeStyle;rounded=0;orthogonalLoop=1;jettySize=auto;html=1;fontSize=17;fontColor=#000000;endArrow=open;endFill=0;strokeWidth=1;" edge="1" parent="WIyWlLk6GJQsqaUBKTNV-1" source="l--_rwEBYW_ynLptJhpw-155" target="l--_rwEBYW_ynLptJhpw-197">
          <mxGeometry relative="1" as="geometry" />
        </mxCell>
        <mxCell id="l--_rwEBYW_ynLptJhpw-155" value="Map model sffServiceRequest" style="rounded=1;whiteSpace=wrap;html=1;absoluteArcSize=1;arcSize=14;strokeWidth=1;fillColor=#dae8fc;strokeColor=#6c8ebf;" vertex="1" parent="WIyWlLk6GJQsqaUBKTNV-1">
          <mxGeometry x="2838.2599999999998" y="2090" width="221.25" height="40" as="geometry" />
        </mxCell>
        <mxCell id="l--_rwEBYW_ynLptJhpw-156" value="" style="edgeStyle=orthogonalEdgeStyle;rounded=0;orthogonalLoop=1;jettySize=auto;html=1;endArrow=open;endFill=0;strokeWidth=1;" edge="1" parent="WIyWlLk6GJQsqaUBKTNV-1" source="l--_rwEBYW_ynLptJhpw-157" target="l--_rwEBYW_ynLptJhpw-159">
          <mxGeometry relative="1" as="geometry" />
        </mxCell>
        <mxCell id="l--_rwEBYW_ynLptJhpw-157" value="Map model SffMnpPreValidate = search" style="rounded=1;whiteSpace=wrap;html=1;absoluteArcSize=1;arcSize=14;strokeWidth=1;fillColor=#dae8fc;strokeColor=#6c8ebf;" vertex="1" parent="WIyWlLk6GJQsqaUBKTNV-1">
          <mxGeometry x="2837.7999999999997" y="2420" width="221.25" height="40" as="geometry" />
        </mxCell>
        <mxCell id="l--_rwEBYW_ynLptJhpw-158" style="edgeStyle=orthogonalEdgeStyle;rounded=0;orthogonalLoop=1;jettySize=auto;html=1;entryX=0.5;entryY=1;entryDx=0;entryDy=0;entryPerimeter=0;fontSize=17;fontColor=#000000;endArrow=open;endFill=0;strokeWidth=1;exitX=0.5;exitY=1;exitDx=0;exitDy=0;" edge="1" parent="WIyWlLk6GJQsqaUBKTNV-1" source="l--_rwEBYW_ynLptJhpw-159" target="l--_rwEBYW_ynLptJhpw-162">
          <mxGeometry relative="1" as="geometry" />
        </mxCell>
        <mxCell id="l--_rwEBYW_ynLptJhpw-159" value="sffMnpPreValidateList = sffMnpPreValidateDao.getByCriteria(search)" style="rounded=1;whiteSpace=wrap;html=1;absoluteArcSize=1;arcSize=14;strokeWidth=1;fillColor=#dae8fc;strokeColor=#6c8ebf;" vertex="1" parent="WIyWlLk6GJQsqaUBKTNV-1">
          <mxGeometry x="2750" y="2525" width="396.87" height="40" as="geometry" />
        </mxCell>
        <mxCell id="l--_rwEBYW_ynLptJhpw-160" style="edgeStyle=orthogonalEdgeStyle;rounded=0;orthogonalLoop=1;jettySize=auto;html=1;entryX=0.5;entryY=0;entryDx=0;entryDy=0;endArrow=open;endFill=0;strokeWidth=1;fillColor=#e51400;strokeColor=#B20000;" edge="1" parent="WIyWlLk6GJQsqaUBKTNV-1" source="l--_rwEBYW_ynLptJhpw-162" target="l--_rwEBYW_ynLptJhpw-164">
          <mxGeometry relative="1" as="geometry" />
        </mxCell>
        <mxCell id="l--_rwEBYW_ynLptJhpw-161" value="" style="edgeStyle=orthogonalEdgeStyle;rounded=0;orthogonalLoop=1;jettySize=auto;html=1;endArrow=open;endFill=0;strokeWidth=1;fillColor=#008a00;strokeColor=#005700;" edge="1" parent="WIyWlLk6GJQsqaUBKTNV-1" source="l--_rwEBYW_ynLptJhpw-162" target="l--_rwEBYW_ynLptJhpw-167">
          <mxGeometry relative="1" as="geometry" />
        </mxCell>
        <mxCell id="l--_rwEBYW_ynLptJhpw-162" value="&lt;p&gt;sffMnpPreValidateList&lt;/p&gt;&lt;p&gt;.isEmpty()&lt;/p&gt;" style="strokeWidth=2;html=1;shape=mxgraph.flowchart.decision;whiteSpace=wrap;flipV=1;fillColor=#d5e8d4;strokeColor=#82b366;" vertex="1" parent="WIyWlLk6GJQsqaUBKTNV-1">
          <mxGeometry x="3212.2799999999997" y="2750" width="175.62" height="115" as="geometry" />
        </mxCell>
        <mxCell id="l--_rwEBYW_ynLptJhpw-163" value="" style="edgeStyle=orthogonalEdgeStyle;rounded=0;orthogonalLoop=1;jettySize=auto;html=1;fontSize=17;fontColor=#000000;endArrow=open;endFill=0;strokeWidth=1;" edge="1" parent="WIyWlLk6GJQsqaUBKTNV-1" source="l--_rwEBYW_ynLptJhpw-164" target="l--_rwEBYW_ynLptJhpw-210">
          <mxGeometry relative="1" as="geometry" />
        </mxCell>
        <mxCell id="l--_rwEBYW_ynLptJhpw-164" value="Map mnpPreValidate = sffMnpPreValidateList.get(0)" style="rounded=1;whiteSpace=wrap;html=1;absoluteArcSize=1;arcSize=14;strokeWidth=1;fillColor=#dae8fc;strokeColor=#6c8ebf;" vertex="1" parent="WIyWlLk6GJQsqaUBKTNV-1">
          <mxGeometry x="3450" y="2880" width="396.87" height="40" as="geometry" />
        </mxCell>
        <mxCell id="l--_rwEBYW_ynLptJhpw-165" value="False" style="text;html=1;strokeColor=none;fillColor=none;align=center;verticalAlign=middle;whiteSpace=wrap;rounded=0;fontColor=#FF0000;" vertex="1" parent="WIyWlLk6GJQsqaUBKTNV-1">
          <mxGeometry x="3386.87" y="2810" width="60" height="30" as="geometry" />
        </mxCell>
        <mxCell id="l--_rwEBYW_ynLptJhpw-166" value="" style="edgeStyle=orthogonalEdgeStyle;rounded=0;orthogonalLoop=1;jettySize=auto;html=1;fontSize=17;fontColor=#000000;endArrow=open;endFill=0;strokeWidth=1;" edge="1" parent="WIyWlLk6GJQsqaUBKTNV-1" source="l--_rwEBYW_ynLptJhpw-167" target="l--_rwEBYW_ynLptJhpw-201">
          <mxGeometry relative="1" as="geometry" />
        </mxCell>
        <mxCell id="l--_rwEBYW_ynLptJhpw-167" value="Map model inputMnpPreValidate" style="rounded=1;whiteSpace=wrap;html=1;absoluteArcSize=1;arcSize=14;strokeWidth=1;fillColor=#dae8fc;strokeColor=#6c8ebf;" vertex="1" parent="WIyWlLk6GJQsqaUBKTNV-1">
          <mxGeometry x="2881.65" y="2875" width="220" height="40" as="geometry" />
        </mxCell>
        <mxCell id="l--_rwEBYW_ynLptJhpw-168" value="True" style="text;html=1;align=center;verticalAlign=middle;whiteSpace=wrap;rounded=0;fontColor=#009900;" vertex="1" parent="WIyWlLk6GJQsqaUBKTNV-1">
          <mxGeometry x="3161.82" y="2810" width="60" height="30" as="geometry" />
        </mxCell>
        <mxCell id="l--_rwEBYW_ynLptJhpw-169" value="" style="edgeStyle=orthogonalEdgeStyle;rounded=0;orthogonalLoop=1;jettySize=auto;html=1;endArrow=open;endFill=0;strokeWidth=1;" edge="1" parent="WIyWlLk6GJQsqaUBKTNV-1" source="l--_rwEBYW_ynLptJhpw-170" target="l--_rwEBYW_ynLptJhpw-13">
          <mxGeometry relative="1" as="geometry" />
        </mxCell>
        <mxCell id="l--_rwEBYW_ynLptJhpw-170" value="errorMessage = &quot;&quot;" style="rounded=1;whiteSpace=wrap;html=1;absoluteArcSize=1;arcSize=14;strokeWidth=1;fontColor=#FF0000;" vertex="1" parent="WIyWlLk6GJQsqaUBKTNV-1">
          <mxGeometry x="504.68" y="430" width="260" height="40" as="geometry" />
        </mxCell>
        <mxCell id="l--_rwEBYW_ynLptJhpw-171" value="" style="edgeStyle=orthogonalEdgeStyle;rounded=0;orthogonalLoop=1;jettySize=auto;html=1;endArrow=open;endFill=0;strokeWidth=1;" edge="1" parent="WIyWlLk6GJQsqaUBKTNV-1" source="l--_rwEBYW_ynLptJhpw-172" target="l--_rwEBYW_ynLptJhpw-175">
          <mxGeometry relative="1" as="geometry" />
        </mxCell>
        <mxCell id="l--_rwEBYW_ynLptJhpw-172" value="set parameters Parameter[2]" style="rounded=1;whiteSpace=wrap;html=1;absoluteArcSize=1;arcSize=14;strokeWidth=1;fillColor=#dae8fc;strokeColor=#6c8ebf;" vertex="1" parent="WIyWlLk6GJQsqaUBKTNV-1">
          <mxGeometry x="167.19" y="625" width="185" height="40" as="geometry" />
        </mxCell>
        <mxCell id="l--_rwEBYW_ynLptJhpw-173" value="True" style="text;html=1;align=center;verticalAlign=middle;whiteSpace=wrap;rounded=0;fontColor=#009900;" vertex="1" parent="WIyWlLk6GJQsqaUBKTNV-1">
          <mxGeometry x="459.99999999999994" y="560" width="60" height="30" as="geometry" />
        </mxCell>
        <mxCell id="l--_rwEBYW_ynLptJhpw-174" value="" style="edgeStyle=orthogonalEdgeStyle;rounded=0;orthogonalLoop=1;jettySize=auto;html=1;endArrow=open;endFill=0;strokeWidth=1;" edge="1" parent="WIyWlLk6GJQsqaUBKTNV-1" source="l--_rwEBYW_ynLptJhpw-175" target="l--_rwEBYW_ynLptJhpw-177">
          <mxGeometry relative="1" as="geometry" />
        </mxCell>
        <mxCell id="l--_rwEBYW_ynLptJhpw-175" value="set parameter Parameter" style="rounded=1;whiteSpace=wrap;html=1;absoluteArcSize=1;arcSize=14;strokeWidth=1;fillColor=#dae8fc;strokeColor=#6c8ebf;" vertex="1" parent="WIyWlLk6GJQsqaUBKTNV-1">
          <mxGeometry x="167.19" y="730" width="185" height="40" as="geometry" />
        </mxCell>
        <mxCell id="l--_rwEBYW_ynLptJhpw-176" value="" style="edgeStyle=orthogonalEdgeStyle;rounded=0;orthogonalLoop=1;jettySize=auto;html=1;endArrow=open;endFill=0;strokeWidth=1;" edge="1" parent="WIyWlLk6GJQsqaUBKTNV-1" source="l--_rwEBYW_ynLptJhpw-177" target="l--_rwEBYW_ynLptJhpw-179">
          <mxGeometry relative="1" as="geometry" />
        </mxCell>
        <mxCell id="l--_rwEBYW_ynLptJhpw-177" value="set parameter(Name(status), Value(Error))&amp;nbsp;" style="rounded=1;whiteSpace=wrap;html=1;absoluteArcSize=1;arcSize=14;strokeWidth=1;fillColor=#dae8fc;strokeColor=#6c8ebf;" vertex="1" parent="WIyWlLk6GJQsqaUBKTNV-1">
          <mxGeometry x="134.06" y="830" width="251.25" height="40" as="geometry" />
        </mxCell>
        <mxCell id="l--_rwEBYW_ynLptJhpw-178" value="" style="edgeStyle=orthogonalEdgeStyle;rounded=0;orthogonalLoop=1;jettySize=auto;html=1;endArrow=open;endFill=0;strokeWidth=1;" edge="1" parent="WIyWlLk6GJQsqaUBKTNV-1" source="l--_rwEBYW_ynLptJhpw-179" target="l--_rwEBYW_ynLptJhpw-181">
          <mxGeometry relative="1" as="geometry" />
        </mxCell>
        <mxCell id="l--_rwEBYW_ynLptJhpw-179" value="parameters[0] =&amp;nbsp;&amp;nbsp;parameter" style="rounded=1;whiteSpace=wrap;html=1;absoluteArcSize=1;arcSize=14;strokeWidth=1;fillColor=#dae8fc;strokeColor=#6c8ebf;" vertex="1" parent="WIyWlLk6GJQsqaUBKTNV-1">
          <mxGeometry x="134.06" y="930" width="251.25" height="40" as="geometry" />
        </mxCell>
        <mxCell id="l--_rwEBYW_ynLptJhpw-180" value="" style="edgeStyle=orthogonalEdgeStyle;rounded=0;orthogonalLoop=1;jettySize=auto;html=1;endArrow=open;endFill=0;strokeWidth=1;" edge="1" parent="WIyWlLk6GJQsqaUBKTNV-1" source="l--_rwEBYW_ynLptJhpw-181">
          <mxGeometry relative="1" as="geometry">
            <mxPoint x="259.69000000000005" y="1130" as="targetPoint" />
          </mxGeometry>
        </mxCell>
        <mxCell id="l--_rwEBYW_ynLptJhpw-181" value="set parameter Parameter" style="rounded=1;whiteSpace=wrap;html=1;absoluteArcSize=1;arcSize=14;strokeWidth=1;fillColor=#dae8fc;strokeColor=#6c8ebf;" vertex="1" parent="WIyWlLk6GJQsqaUBKTNV-1">
          <mxGeometry x="167.19" y="1025" width="185" height="40" as="geometry" />
        </mxCell>
        <mxCell id="l--_rwEBYW_ynLptJhpw-182" value="" style="edgeStyle=orthogonalEdgeStyle;rounded=0;orthogonalLoop=1;jettySize=auto;html=1;endArrow=open;endFill=0;strokeWidth=1;" edge="1" parent="WIyWlLk6GJQsqaUBKTNV-1" source="l--_rwEBYW_ynLptJhpw-183" target="l--_rwEBYW_ynLptJhpw-185">
          <mxGeometry relative="1" as="geometry" />
        </mxCell>
        <mxCell id="l--_rwEBYW_ynLptJhpw-183" value="set parameter(Name(errorMessage), Value(Incorrect input parameter))&amp;nbsp;" style="rounded=1;whiteSpace=wrap;html=1;absoluteArcSize=1;arcSize=14;strokeWidth=1;fillColor=#dae8fc;strokeColor=#6c8ebf;" vertex="1" parent="WIyWlLk6GJQsqaUBKTNV-1">
          <mxGeometry x="134.06" y="1120" width="251.25" height="40" as="geometry" />
        </mxCell>
        <mxCell id="l--_rwEBYW_ynLptJhpw-184" value="" style="edgeStyle=orthogonalEdgeStyle;rounded=0;orthogonalLoop=1;jettySize=auto;html=1;endArrow=open;endFill=0;strokeWidth=1;" edge="1" parent="WIyWlLk6GJQsqaUBKTNV-1" source="l--_rwEBYW_ynLptJhpw-185">
          <mxGeometry relative="1" as="geometry">
            <mxPoint x="259.6766666666663" y="1330" as="targetPoint" />
          </mxGeometry>
        </mxCell>
        <mxCell id="l--_rwEBYW_ynLptJhpw-185" value="parameters[1] =&amp;nbsp;&amp;nbsp;parameter" style="rounded=1;whiteSpace=wrap;html=1;absoluteArcSize=1;arcSize=14;strokeWidth=1;fillColor=#dae8fc;strokeColor=#6c8ebf;" vertex="1" parent="WIyWlLk6GJQsqaUBKTNV-1">
          <mxGeometry x="134.07" y="1220" width="251.25" height="40" as="geometry" />
        </mxCell>
        <mxCell id="l--_rwEBYW_ynLptJhpw-186" style="edgeStyle=orthogonalEdgeStyle;rounded=0;orthogonalLoop=1;jettySize=auto;html=1;entryX=0.5;entryY=0;entryDx=0;entryDy=0;endArrow=open;endFill=0;strokeWidth=1;" edge="1" parent="WIyWlLk6GJQsqaUBKTNV-1" source="l--_rwEBYW_ynLptJhpw-187" target="l--_rwEBYW_ynLptJhpw-189">
          <mxGeometry relative="1" as="geometry">
            <Array as="points">
              <mxPoint x="260" y="5300" />
              <mxPoint x="2808" y="5300" />
            </Array>
          </mxGeometry>
        </mxCell>
        <mxCell id="l--_rwEBYW_ynLptJhpw-187" value="sffResponse.setErrorMessage(&quot;Incorrect input parameter&quot;)" style="rounded=1;whiteSpace=wrap;html=1;absoluteArcSize=1;arcSize=14;strokeWidth=1;fillColor=#dae8fc;strokeColor=#6c8ebf;" vertex="1" parent="WIyWlLk6GJQsqaUBKTNV-1">
          <mxGeometry x="92.5" y="1330" width="334.37" height="40" as="geometry" />
        </mxCell>
        <mxCell id="l--_rwEBYW_ynLptJhpw-188" value="" style="edgeStyle=orthogonalEdgeStyle;rounded=0;orthogonalLoop=1;jettySize=auto;html=1;endArrow=open;endFill=0;strokeWidth=1;" edge="1" parent="WIyWlLk6GJQsqaUBKTNV-1" source="l--_rwEBYW_ynLptJhpw-189" target="l--_rwEBYW_ynLptJhpw-191">
          <mxGeometry relative="1" as="geometry" />
        </mxCell>
        <mxCell id="l--_rwEBYW_ynLptJhpw-189" value="parameterListresult.setParameter(parameters)" style="rounded=1;whiteSpace=wrap;html=1;absoluteArcSize=1;arcSize=14;strokeWidth=1;fillColor=#dae8fc;strokeColor=#6c8ebf;" vertex="1" parent="WIyWlLk6GJQsqaUBKTNV-1">
          <mxGeometry x="2580" y="5430" width="456.88" height="45" as="geometry" />
        </mxCell>
        <mxCell id="l--_rwEBYW_ynLptJhpw-190" value="" style="edgeStyle=orthogonalEdgeStyle;rounded=0;orthogonalLoop=1;jettySize=auto;html=1;endArrow=open;endFill=0;strokeWidth=1;" edge="1" parent="WIyWlLk6GJQsqaUBKTNV-1" source="l--_rwEBYW_ynLptJhpw-191" target="l--_rwEBYW_ynLptJhpw-145">
          <mxGeometry relative="1" as="geometry" />
        </mxCell>
        <mxCell id="l--_rwEBYW_ynLptJhpw-191" value="sffResponse.setParameterList(parameterListresult)" style="rounded=1;whiteSpace=wrap;html=1;absoluteArcSize=1;arcSize=14;strokeWidth=1;fillColor=#dae8fc;strokeColor=#6c8ebf;" vertex="1" parent="WIyWlLk6GJQsqaUBKTNV-1">
          <mxGeometry x="2580" y="5540" width="456.88" height="45" as="geometry" />
        </mxCell>
        <mxCell id="l--_rwEBYW_ynLptJhpw-192" value="&amp;nbsp;Step : Validate Input parameter&amp;nbsp;" style="text;html=1;strokeColor=none;fillColor=none;align=center;verticalAlign=middle;whiteSpace=wrap;rounded=0;fontColor=#000000;fontSize=17;fontStyle=1" vertex="1" parent="WIyWlLk6GJQsqaUBKTNV-1">
          <mxGeometry x="921.37" y="1350" width="283.38" height="30" as="geometry" />
        </mxCell>
        <mxCell id="l--_rwEBYW_ynLptJhpw-193" value="False" style="text;html=1;strokeColor=none;fillColor=none;align=center;verticalAlign=middle;whiteSpace=wrap;rounded=0;fontColor=#FF0000;" vertex="1" parent="WIyWlLk6GJQsqaUBKTNV-1">
          <mxGeometry x="1059.75" y="3800" width="60" height="30" as="geometry" />
        </mxCell>
        <mxCell id="l--_rwEBYW_ynLptJhpw-194" style="edgeStyle=orthogonalEdgeStyle;rounded=0;orthogonalLoop=1;jettySize=auto;html=1;entryX=0;entryY=0.5;entryDx=0;entryDy=0;entryPerimeter=0;fontSize=42;fontColor=#FF0000;endArrow=open;endFill=0;strokeWidth=1;fillColor=#e51400;strokeColor=#B20000;" edge="1" parent="WIyWlLk6GJQsqaUBKTNV-1" source="l--_rwEBYW_ynLptJhpw-195" target="l--_rwEBYW_ynLptJhpw-150">
          <mxGeometry relative="1" as="geometry">
            <Array as="points">
              <mxPoint x="1455" y="4210" />
              <mxPoint x="2480" y="4210" />
              <mxPoint x="2480" y="1920" />
            </Array>
          </mxGeometry>
        </mxCell>
        <mxCell id="l--_rwEBYW_ynLptJhpw-195" value="getOverwriteXXX is null (RejectCode, User, Reason, Remark)" style="strokeWidth=2;html=1;shape=mxgraph.flowchart.decision;whiteSpace=wrap;flipV=1;fillColor=#fad9d5;strokeColor=#ae4132;" vertex="1" parent="WIyWlLk6GJQsqaUBKTNV-1">
          <mxGeometry x="1340" y="4017" width="230" height="170" as="geometry" />
        </mxCell>
        <mxCell id="l--_rwEBYW_ynLptJhpw-196" value="" style="edgeStyle=orthogonalEdgeStyle;rounded=0;orthogonalLoop=1;jettySize=auto;html=1;fontSize=17;fontColor=#000000;endArrow=open;endFill=0;strokeWidth=1;" edge="1" parent="WIyWlLk6GJQsqaUBKTNV-1" source="l--_rwEBYW_ynLptJhpw-197" target="l--_rwEBYW_ynLptJhpw-199">
          <mxGeometry relative="1" as="geometry" />
        </mxCell>
        <mxCell id="l--_rwEBYW_ynLptJhpw-197" value="search = new SffMnpPreValidate()" style="rounded=1;whiteSpace=wrap;html=1;absoluteArcSize=1;arcSize=14;strokeWidth=1;fillColor=#dae8fc;strokeColor=#6c8ebf;" vertex="1" parent="WIyWlLk6GJQsqaUBKTNV-1">
          <mxGeometry x="2838.2599999999998" y="2195" width="221.25" height="40" as="geometry" />
        </mxCell>
        <mxCell id="l--_rwEBYW_ynLptJhpw-198" style="edgeStyle=orthogonalEdgeStyle;rounded=0;orthogonalLoop=1;jettySize=auto;html=1;entryX=0.5;entryY=0;entryDx=0;entryDy=0;fontSize=17;fontColor=#000000;endArrow=open;endFill=0;strokeWidth=1;" edge="1" parent="WIyWlLk6GJQsqaUBKTNV-1" source="l--_rwEBYW_ynLptJhpw-199" target="l--_rwEBYW_ynLptJhpw-157">
          <mxGeometry relative="1" as="geometry" />
        </mxCell>
        <mxCell id="l--_rwEBYW_ynLptJhpw-199" value="set search(MobileNo,&amp;nbsp;PinCode)" style="rounded=1;whiteSpace=wrap;html=1;absoluteArcSize=1;arcSize=14;strokeWidth=1;fillColor=#dae8fc;strokeColor=#6c8ebf;" vertex="1" parent="WIyWlLk6GJQsqaUBKTNV-1">
          <mxGeometry x="2838.2599999999998" y="2305" width="221.25" height="40" as="geometry" />
        </mxCell>
        <mxCell id="l--_rwEBYW_ynLptJhpw-200" value="" style="edgeStyle=orthogonalEdgeStyle;rounded=0;orthogonalLoop=1;jettySize=auto;html=1;fontSize=17;fontColor=#000000;endArrow=open;endFill=0;strokeWidth=1;" edge="1" parent="WIyWlLk6GJQsqaUBKTNV-1" source="l--_rwEBYW_ynLptJhpw-201" target="l--_rwEBYW_ynLptJhpw-203">
          <mxGeometry relative="1" as="geometry" />
        </mxCell>
        <mxCell id="l--_rwEBYW_ynLptJhpw-201" value="set&amp;nbsp;inputMnpPreValidate" style="rounded=1;whiteSpace=wrap;html=1;absoluteArcSize=1;arcSize=14;strokeWidth=1;fillColor=#dae8fc;strokeColor=#6c8ebf;" vertex="1" parent="WIyWlLk6GJQsqaUBKTNV-1">
          <mxGeometry x="2881.65" y="2995" width="220" height="40" as="geometry" />
        </mxCell>
        <mxCell id="l--_rwEBYW_ynLptJhpw-202" value="" style="edgeStyle=orthogonalEdgeStyle;rounded=0;orthogonalLoop=1;jettySize=auto;html=1;fontSize=17;fontColor=#000000;endArrow=open;endFill=0;strokeWidth=1;" edge="1" parent="WIyWlLk6GJQsqaUBKTNV-1" source="l--_rwEBYW_ynLptJhpw-203" target="l--_rwEBYW_ynLptJhpw-205">
          <mxGeometry relative="1" as="geometry" />
        </mxCell>
        <mxCell id="l--_rwEBYW_ynLptJhpw-203" value="Call service mobileNumberPortInterfaceService.doCreateNewInsertSffMnpPrevalidate(inputMnpPreValidate)" style="rounded=1;whiteSpace=wrap;html=1;absoluteArcSize=1;arcSize=14;strokeWidth=1;fillColor=#dae8fc;strokeColor=#6c8ebf;" vertex="1" parent="WIyWlLk6GJQsqaUBKTNV-1">
          <mxGeometry x="2680.65" y="3188.75" width="622" height="51.25" as="geometry" />
        </mxCell>
        <mxCell id="l--_rwEBYW_ynLptJhpw-204" style="edgeStyle=orthogonalEdgeStyle;rounded=0;orthogonalLoop=1;jettySize=auto;html=1;entryX=0.5;entryY=0;entryDx=0;entryDy=0;fontSize=28;fontColor=#000000;endArrow=open;endFill=0;strokeWidth=1;" edge="1" parent="WIyWlLk6GJQsqaUBKTNV-1" source="l--_rwEBYW_ynLptJhpw-205" target="l--_rwEBYW_ynLptJhpw-218">
          <mxGeometry relative="1" as="geometry" />
        </mxCell>
        <mxCell id="l--_rwEBYW_ynLptJhpw-205" value="Map model sffServiceRequest description2 = inputMnpPreValidate.getRowId()" style="rounded=1;whiteSpace=wrap;html=1;absoluteArcSize=1;arcSize=14;strokeWidth=1;fillColor=#dae8fc;strokeColor=#6c8ebf;" vertex="1" parent="WIyWlLk6GJQsqaUBKTNV-1">
          <mxGeometry x="2731.6600000000003" y="3335" width="520" height="50" as="geometry" />
        </mxCell>
        <mxCell id="l--_rwEBYW_ynLptJhpw-206" value="" style="edgeStyle=orthogonalEdgeStyle;rounded=0;orthogonalLoop=1;jettySize=auto;html=1;fontSize=28;fontColor=#000000;endArrow=open;endFill=0;strokeWidth=1;" edge="1" parent="WIyWlLk6GJQsqaUBKTNV-1" source="l--_rwEBYW_ynLptJhpw-207" target="l--_rwEBYW_ynLptJhpw-342">
          <mxGeometry relative="1" as="geometry" />
        </mxCell>
        <mxCell id="l--_rwEBYW_ynLptJhpw-207" value="messageQueue = &quot;MNPPreValidatePortOutRequest|&quot; + sffServiceRequest.getRowId()" style="rounded=1;whiteSpace=wrap;html=1;absoluteArcSize=1;arcSize=14;strokeWidth=1;fillColor=#dae8fc;strokeColor=#6c8ebf;" vertex="1" parent="WIyWlLk6GJQsqaUBKTNV-1">
          <mxGeometry x="3055.0100000000007" y="3765" width="490.18" height="45" as="geometry" />
        </mxCell>
        <mxCell id="l--_rwEBYW_ynLptJhpw-208" value="" style="edgeStyle=orthogonalEdgeStyle;rounded=0;orthogonalLoop=1;jettySize=auto;html=1;fontSize=17;fontColor=#000000;endArrow=open;endFill=0;strokeWidth=1;fillColor=#008a00;strokeColor=#005700;" edge="1" parent="WIyWlLk6GJQsqaUBKTNV-1" source="l--_rwEBYW_ynLptJhpw-210" target="l--_rwEBYW_ynLptJhpw-212">
          <mxGeometry relative="1" as="geometry" />
        </mxCell>
        <mxCell id="l--_rwEBYW_ynLptJhpw-209" style="edgeStyle=orthogonalEdgeStyle;rounded=0;orthogonalLoop=1;jettySize=auto;html=1;entryX=0;entryY=0.5;entryDx=0;entryDy=0;entryPerimeter=0;fontSize=17;fontColor=#000000;endArrow=open;endFill=0;strokeWidth=1;fillColor=#e51400;strokeColor=#B20000;" edge="1" parent="WIyWlLk6GJQsqaUBKTNV-1" source="l--_rwEBYW_ynLptJhpw-210" target="l--_rwEBYW_ynLptJhpw-221">
          <mxGeometry relative="1" as="geometry" />
        </mxCell>
        <mxCell id="l--_rwEBYW_ynLptJhpw-210" value="mnpPreValidate.getStatusCd() = Reject" style="strokeWidth=2;html=1;shape=mxgraph.flowchart.decision;whiteSpace=wrap;flipV=1;fillColor=#f8cecc;strokeColor=#b85450;" vertex="1" parent="WIyWlLk6GJQsqaUBKTNV-1">
          <mxGeometry x="3527.5699999999997" y="2987.5" width="242.43" height="127.5" as="geometry" />
        </mxCell>
        <mxCell id="l--_rwEBYW_ynLptJhpw-211" value="" style="edgeStyle=orthogonalEdgeStyle;rounded=0;orthogonalLoop=1;jettySize=auto;html=1;fontSize=17;fontColor=#000000;endArrow=open;endFill=0;strokeWidth=1;" edge="1" parent="WIyWlLk6GJQsqaUBKTNV-1" source="l--_rwEBYW_ynLptJhpw-212" target="l--_rwEBYW_ynLptJhpw-216">
          <mxGeometry relative="1" as="geometry" />
        </mxCell>
        <mxCell id="l--_rwEBYW_ynLptJhpw-212" value="Map model mnpPreValidate" style="rounded=1;whiteSpace=wrap;html=1;absoluteArcSize=1;arcSize=14;strokeWidth=1;fillColor=#dae8fc;strokeColor=#6c8ebf;" vertex="1" parent="WIyWlLk6GJQsqaUBKTNV-1">
          <mxGeometry x="3543.78" y="3192.5" width="210" height="45" as="geometry" />
        </mxCell>
        <mxCell id="l--_rwEBYW_ynLptJhpw-213" value="True" style="text;html=1;align=center;verticalAlign=middle;whiteSpace=wrap;rounded=0;fontColor=#009900;" vertex="1" parent="WIyWlLk6GJQsqaUBKTNV-1">
          <mxGeometry x="3651.25" y="3115" width="60" height="30" as="geometry" />
        </mxCell>
        <mxCell id="l--_rwEBYW_ynLptJhpw-214" value="False" style="text;html=1;strokeColor=none;fillColor=none;align=center;verticalAlign=middle;whiteSpace=wrap;rounded=0;fontColor=#FF0000;" vertex="1" parent="WIyWlLk6GJQsqaUBKTNV-1">
          <mxGeometry x="3770" y="3015" width="60" height="30" as="geometry" />
        </mxCell>
        <mxCell id="l--_rwEBYW_ynLptJhpw-215" value="" style="edgeStyle=orthogonalEdgeStyle;rounded=0;orthogonalLoop=1;jettySize=auto;html=1;fontSize=17;fontColor=#000000;endArrow=open;endFill=0;strokeWidth=1;" edge="1" parent="WIyWlLk6GJQsqaUBKTNV-1">
          <mxGeometry relative="1" as="geometry">
            <mxPoint x="3648.789473684211" y="3383.5" as="sourcePoint" />
            <mxPoint x="3300.0526315789475" y="3626" as="targetPoint" />
            <Array as="points">
              <mxPoint x="3649" y="3505" />
              <mxPoint x="3300" y="3505" />
            </Array>
          </mxGeometry>
        </mxCell>
        <mxCell id="l--_rwEBYW_ynLptJhpw-216" value="Map model sffServiceRequest description2 = mnpPreValidate.getRowId()" style="rounded=1;whiteSpace=wrap;html=1;absoluteArcSize=1;arcSize=14;strokeWidth=1;fillColor=#dae8fc;strokeColor=#6c8ebf;" vertex="1" parent="WIyWlLk6GJQsqaUBKTNV-1">
          <mxGeometry x="3448.78" y="3330" width="400" height="52.5" as="geometry" />
        </mxCell>
        <mxCell id="l--_rwEBYW_ynLptJhpw-217" style="edgeStyle=orthogonalEdgeStyle;rounded=0;orthogonalLoop=1;jettySize=auto;html=1;entryX=0.5;entryY=0;entryDx=0;entryDy=0;fontSize=28;fontColor=#000000;endArrow=open;endFill=0;strokeWidth=1;" edge="1" parent="WIyWlLk6GJQsqaUBKTNV-1" source="l--_rwEBYW_ynLptJhpw-218" target="l--_rwEBYW_ynLptJhpw-207">
          <mxGeometry relative="1" as="geometry" />
        </mxCell>
        <mxCell id="l--_rwEBYW_ynLptJhpw-218" value="Call service mobileNumberPortInterfaceService.doCreateNewUpdateServiceRequest(sffServiceRequest);" style="rounded=1;whiteSpace=wrap;html=1;absoluteArcSize=1;arcSize=14;strokeWidth=1;fillColor=#dae8fc;strokeColor=#6c8ebf;" vertex="1" parent="WIyWlLk6GJQsqaUBKTNV-1">
          <mxGeometry x="3003.53" y="3625" width="593.13" height="45" as="geometry" />
        </mxCell>
        <mxCell id="l--_rwEBYW_ynLptJhpw-219" value="" style="edgeStyle=orthogonalEdgeStyle;rounded=0;orthogonalLoop=1;jettySize=auto;html=1;fontSize=17;fontColor=#000000;endArrow=open;endFill=0;strokeWidth=1;fillColor=#008a00;strokeColor=#005700;entryX=0.5;entryY=0;entryDx=0;entryDy=0;" edge="1" parent="WIyWlLk6GJQsqaUBKTNV-1" source="l--_rwEBYW_ynLptJhpw-221" target="l--_rwEBYW_ynLptJhpw-346">
          <mxGeometry relative="1" as="geometry">
            <mxPoint x="4180.25" y="3175" as="targetPoint" />
          </mxGeometry>
        </mxCell>
        <mxCell id="l--_rwEBYW_ynLptJhpw-220" value="" style="edgeStyle=orthogonalEdgeStyle;rounded=0;orthogonalLoop=1;jettySize=auto;html=1;fontSize=17;fontColor=#000000;endArrow=open;endFill=0;strokeWidth=1;fillColor=#e51400;strokeColor=#B20000;" edge="1" parent="WIyWlLk6GJQsqaUBKTNV-1" source="l--_rwEBYW_ynLptJhpw-221" target="l--_rwEBYW_ynLptJhpw-227">
          <mxGeometry relative="1" as="geometry" />
        </mxCell>
        <mxCell id="l--_rwEBYW_ynLptJhpw-221" value="mnpPreValidate.getStatusCd() = Open" style="strokeWidth=2;html=1;shape=mxgraph.flowchart.decision;whiteSpace=wrap;flipV=1;fillColor=#f8cecc;strokeColor=#b85450;" vertex="1" parent="WIyWlLk6GJQsqaUBKTNV-1">
          <mxGeometry x="4059" y="2987.5" width="242.43" height="127.5" as="geometry" />
        </mxCell>
        <mxCell id="l--_rwEBYW_ynLptJhpw-222" style="edgeStyle=orthogonalEdgeStyle;rounded=0;orthogonalLoop=1;jettySize=auto;html=1;entryX=0.5;entryY=0;entryDx=0;entryDy=0;fontSize=17;fontColor=#FF0000;endArrow=open;endFill=0;strokeWidth=1;" edge="1" parent="WIyWlLk6GJQsqaUBKTNV-1" source="l--_rwEBYW_ynLptJhpw-223" target="l--_rwEBYW_ynLptJhpw-284">
          <mxGeometry relative="1" as="geometry" />
        </mxCell>
        <mxCell id="l--_rwEBYW_ynLptJhpw-223" value="Call service mobileNumberPortInterfaceService.updateSffServiceRequest(sffServiceRequest);" style="rounded=1;whiteSpace=wrap;html=1;absoluteArcSize=1;arcSize=14;strokeWidth=1;fillColor=#dae8fc;strokeColor=#6c8ebf;" vertex="1" parent="WIyWlLk6GJQsqaUBKTNV-1">
          <mxGeometry x="3918.6099999999997" y="3303.75" width="522.78" height="40" as="geometry" />
        </mxCell>
        <mxCell id="l--_rwEBYW_ynLptJhpw-224" value="True" style="text;html=1;align=center;verticalAlign=middle;whiteSpace=wrap;rounded=0;fontColor=#009900;" vertex="1" parent="WIyWlLk6GJQsqaUBKTNV-1">
          <mxGeometry x="4179" y="3120" width="60" height="30" as="geometry" />
        </mxCell>
        <mxCell id="l--_rwEBYW_ynLptJhpw-225" value="" style="edgeStyle=orthogonalEdgeStyle;rounded=0;orthogonalLoop=1;jettySize=auto;html=1;fontSize=17;fontColor=#000000;endArrow=open;endFill=0;strokeWidth=1;fillColor=#008a00;strokeColor=#005700;" edge="1" parent="WIyWlLk6GJQsqaUBKTNV-1" source="l--_rwEBYW_ynLptJhpw-227" target="l--_rwEBYW_ynLptJhpw-230">
          <mxGeometry relative="1" as="geometry" />
        </mxCell>
        <mxCell id="l--_rwEBYW_ynLptJhpw-226" value="" style="edgeStyle=orthogonalEdgeStyle;rounded=0;orthogonalLoop=1;jettySize=auto;html=1;fontSize=17;fontColor=#000000;endArrow=open;endFill=0;strokeWidth=1;fillColor=#e51400;strokeColor=#B20000;" edge="1" parent="WIyWlLk6GJQsqaUBKTNV-1" source="l--_rwEBYW_ynLptJhpw-227" target="l--_rwEBYW_ynLptJhpw-268">
          <mxGeometry relative="1" as="geometry" />
        </mxCell>
        <mxCell id="l--_rwEBYW_ynLptJhpw-227" value="mnpPreValidate.getStatusCd() = Approve" style="strokeWidth=2;html=1;shape=mxgraph.flowchart.decision;whiteSpace=wrap;flipV=1;fillColor=#f8cecc;strokeColor=#b85450;" vertex="1" parent="WIyWlLk6GJQsqaUBKTNV-1">
          <mxGeometry x="4940" y="2987.5" width="242.43" height="127.5" as="geometry" />
        </mxCell>
        <mxCell id="l--_rwEBYW_ynLptJhpw-228" value="False" style="text;html=1;strokeColor=none;fillColor=none;align=center;verticalAlign=middle;whiteSpace=wrap;rounded=0;fontColor=#FF0000;" vertex="1" parent="WIyWlLk6GJQsqaUBKTNV-1">
          <mxGeometry x="4309" y="3015" width="60" height="30" as="geometry" />
        </mxCell>
        <mxCell id="l--_rwEBYW_ynLptJhpw-229" value="" style="edgeStyle=orthogonalEdgeStyle;rounded=0;orthogonalLoop=1;jettySize=auto;html=1;fontSize=17;fontColor=#000000;endArrow=open;endFill=0;strokeWidth=1;" edge="1" parent="WIyWlLk6GJQsqaUBKTNV-1" source="l--_rwEBYW_ynLptJhpw-230" target="l--_rwEBYW_ynLptJhpw-234">
          <mxGeometry relative="1" as="geometry" />
        </mxCell>
        <mxCell id="l--_rwEBYW_ynLptJhpw-230" value="sendSMSToMobileNo = mnpPreValidate.getMobileNo" style="rounded=1;whiteSpace=wrap;html=1;absoluteArcSize=1;arcSize=14;strokeWidth=1;fillColor=#dae8fc;strokeColor=#6c8ebf;" vertex="1" parent="WIyWlLk6GJQsqaUBKTNV-1">
          <mxGeometry x="4890" y="3306.25" width="343.13" height="37.5" as="geometry" />
        </mxCell>
        <mxCell id="l--_rwEBYW_ynLptJhpw-231" style="edgeStyle=orthogonalEdgeStyle;rounded=0;orthogonalLoop=1;jettySize=auto;html=1;entryX=0.5;entryY=0;entryDx=0;entryDy=0;fontSize=17;fontColor=#000000;endArrow=open;endFill=0;strokeWidth=1;exitX=0;exitY=0.5;exitDx=0;exitDy=0;exitPerimeter=0;fillColor=#008a00;strokeColor=#005700;" edge="1" parent="WIyWlLk6GJQsqaUBKTNV-1" source="l--_rwEBYW_ynLptJhpw-234" target="l--_rwEBYW_ynLptJhpw-246">
          <mxGeometry relative="1" as="geometry">
            <mxPoint x="4940.35" y="3615" as="sourcePoint" />
          </mxGeometry>
        </mxCell>
        <mxCell id="l--_rwEBYW_ynLptJhpw-232" style="edgeStyle=orthogonalEdgeStyle;rounded=0;orthogonalLoop=1;jettySize=auto;html=1;fontSize=17;fontColor=#000000;endArrow=open;endFill=0;strokeWidth=1;fillColor=#008a00;strokeColor=#005700;exitX=0;exitY=0.5;exitDx=0;exitDy=0;exitPerimeter=0;" edge="1" parent="WIyWlLk6GJQsqaUBKTNV-1" source="l--_rwEBYW_ynLptJhpw-234" target="l--_rwEBYW_ynLptJhpw-249">
          <mxGeometry relative="1" as="geometry">
            <mxPoint x="4940.35" y="3615" as="sourcePoint" />
            <Array as="points">
              <mxPoint x="4830" y="3589" />
            </Array>
          </mxGeometry>
        </mxCell>
        <mxCell id="l--_rwEBYW_ynLptJhpw-233" style="edgeStyle=orthogonalEdgeStyle;rounded=0;orthogonalLoop=1;jettySize=auto;html=1;entryX=0.5;entryY=0;entryDx=0;entryDy=0;fontSize=17;fontColor=#FF0000;endArrow=open;endFill=0;strokeWidth=1;fillColor=#e51400;strokeColor=#B20000;exitX=1;exitY=0.5;exitDx=0;exitDy=0;exitPerimeter=0;" edge="1" parent="WIyWlLk6GJQsqaUBKTNV-1" source="l--_rwEBYW_ynLptJhpw-234" target="l--_rwEBYW_ynLptJhpw-237">
          <mxGeometry relative="1" as="geometry">
            <mxPoint x="5182.780000000001" y="3615" as="sourcePoint" />
          </mxGeometry>
        </mxCell>
        <mxCell id="l--_rwEBYW_ynLptJhpw-234" value="mnpPreValidate.getCorpLotId().isEmpty()" style="strokeWidth=2;html=1;shape=mxgraph.flowchart.decision;whiteSpace=wrap;flipV=1;fillColor=#d5e8d4;strokeColor=#82b366;" vertex="1" parent="WIyWlLk6GJQsqaUBKTNV-1">
          <mxGeometry x="4940" y="3525.63" width="242.43" height="127.5" as="geometry" />
        </mxCell>
        <mxCell id="l--_rwEBYW_ynLptJhpw-235" value="True" style="text;html=1;align=center;verticalAlign=middle;whiteSpace=wrap;rounded=0;fontColor=#009900;" vertex="1" parent="WIyWlLk6GJQsqaUBKTNV-1">
          <mxGeometry x="5050.35" y="3125" width="60" height="30" as="geometry" />
        </mxCell>
        <mxCell id="l--_rwEBYW_ynLptJhpw-236" value="" style="edgeStyle=orthogonalEdgeStyle;rounded=0;orthogonalLoop=1;jettySize=auto;html=1;fontSize=17;fontColor=#000000;endArrow=open;endFill=0;strokeWidth=1;" edge="1" parent="WIyWlLk6GJQsqaUBKTNV-1" source="l--_rwEBYW_ynLptJhpw-237" target="l--_rwEBYW_ynLptJhpw-241">
          <mxGeometry relative="1" as="geometry" />
        </mxCell>
        <mxCell id="l--_rwEBYW_ynLptJhpw-237" value="commonResult = mobileNumberPortInterfaceService.callPortOutCorporatePreValidateResult(MobileNo, PinCode, CorpLotId, StatusCd, NotificationRejectCode)" style="rounded=1;whiteSpace=wrap;html=1;absoluteArcSize=1;arcSize=14;strokeWidth=1;fillColor=#dae8fc;strokeColor=#6c8ebf;" vertex="1" parent="WIyWlLk6GJQsqaUBKTNV-1">
          <mxGeometry x="5192.43" y="3770" width="573.13" height="47.5" as="geometry" />
        </mxCell>
        <mxCell id="l--_rwEBYW_ynLptJhpw-238" value="False" style="text;html=1;strokeColor=none;fillColor=none;align=center;verticalAlign=middle;whiteSpace=wrap;rounded=0;fontColor=#FF0000;" vertex="1" parent="WIyWlLk6GJQsqaUBKTNV-1">
          <mxGeometry x="5210" y="3560" width="60" height="30" as="geometry" />
        </mxCell>
        <mxCell id="l--_rwEBYW_ynLptJhpw-239" style="edgeStyle=orthogonalEdgeStyle;rounded=0;orthogonalLoop=1;jettySize=auto;html=1;fontSize=17;fontColor=#000000;endArrow=open;endFill=0;strokeWidth=1;exitX=0;exitY=0.5;exitDx=0;exitDy=0;exitPerimeter=0;fillColor=#008a00;strokeColor=#005700;" edge="1" parent="WIyWlLk6GJQsqaUBKTNV-1" source="l--_rwEBYW_ynLptJhpw-241" target="l--_rwEBYW_ynLptJhpw-243">
          <mxGeometry relative="1" as="geometry" />
        </mxCell>
        <mxCell id="l--_rwEBYW_ynLptJhpw-240" style="edgeStyle=orthogonalEdgeStyle;rounded=0;orthogonalLoop=1;jettySize=auto;html=1;entryX=0.5;entryY=0;entryDx=0;entryDy=0;fontSize=17;fontColor=#000000;endArrow=open;endFill=0;strokeWidth=1;fillColor=#e51400;strokeColor=#B20000;" edge="1" parent="WIyWlLk6GJQsqaUBKTNV-1" source="l--_rwEBYW_ynLptJhpw-241" target="l--_rwEBYW_ynLptJhpw-264">
          <mxGeometry relative="1" as="geometry">
            <Array as="points">
              <mxPoint x="5780" y="4000" />
              <mxPoint x="5780" y="4530" />
              <mxPoint x="5058" y="4530" />
            </Array>
          </mxGeometry>
        </mxCell>
        <mxCell id="l--_rwEBYW_ynLptJhpw-241" value="commonResult != null" style="strokeWidth=2;html=1;shape=mxgraph.flowchart.decision;whiteSpace=wrap;flipV=1;fillColor=#d5e8d4;strokeColor=#82b366;" vertex="1" parent="WIyWlLk6GJQsqaUBKTNV-1">
          <mxGeometry x="5357.78" y="3936.25" width="242.43" height="127.5" as="geometry" />
        </mxCell>
        <mxCell id="l--_rwEBYW_ynLptJhpw-242" style="edgeStyle=orthogonalEdgeStyle;rounded=0;orthogonalLoop=1;jettySize=auto;html=1;entryX=0.5;entryY=0;entryDx=0;entryDy=0;fontSize=28;fontColor=#FF0000;endArrow=open;endFill=0;strokeWidth=1;" edge="1" parent="WIyWlLk6GJQsqaUBKTNV-1" source="l--_rwEBYW_ynLptJhpw-243" target="l--_rwEBYW_ynLptJhpw-264">
          <mxGeometry relative="1" as="geometry">
            <Array as="points">
              <mxPoint x="5058" y="4400" />
              <mxPoint x="5058" y="4400" />
            </Array>
          </mxGeometry>
        </mxCell>
        <mxCell id="l--_rwEBYW_ynLptJhpw-243" value="sffServiceRequest.setDescription3(commonResult.status,commonResult.ErrorMessage,commonResult.ErrorCode)" style="rounded=1;whiteSpace=wrap;html=1;absoluteArcSize=1;arcSize=14;strokeWidth=1;fillColor=#dae8fc;strokeColor=#6c8ebf;" vertex="1" parent="WIyWlLk6GJQsqaUBKTNV-1">
          <mxGeometry x="4742.86" y="4190" width="630" height="60" as="geometry" />
        </mxCell>
        <mxCell id="l--_rwEBYW_ynLptJhpw-244" value="True" style="text;html=1;align=center;verticalAlign=middle;whiteSpace=wrap;rounded=0;fontColor=#009900;" vertex="1" parent="WIyWlLk6GJQsqaUBKTNV-1">
          <mxGeometry x="5297.78" y="3970" width="60" height="30" as="geometry" />
        </mxCell>
        <mxCell id="l--_rwEBYW_ynLptJhpw-245" value="" style="edgeStyle=orthogonalEdgeStyle;rounded=0;orthogonalLoop=1;jettySize=auto;html=1;fontSize=17;fontColor=#000000;endArrow=open;endFill=0;strokeWidth=1;" edge="1" parent="WIyWlLk6GJQsqaUBKTNV-1" source="l--_rwEBYW_ynLptJhpw-246" target="l--_rwEBYW_ynLptJhpw-254">
          <mxGeometry relative="1" as="geometry" />
        </mxCell>
        <mxCell id="l--_rwEBYW_ynLptJhpw-246" value="set mnpPreValidate(MobileNo, PinCode, PincodeExpireDt)" style="rounded=1;whiteSpace=wrap;html=1;absoluteArcSize=1;arcSize=14;strokeWidth=1;fillColor=#dae8fc;strokeColor=#6c8ebf;" vertex="1" parent="WIyWlLk6GJQsqaUBKTNV-1">
          <mxGeometry x="4234" y="3775.01" width="343.13" height="37.5" as="geometry" />
        </mxCell>
        <mxCell id="l--_rwEBYW_ynLptJhpw-247" value="True" style="text;html=1;align=center;verticalAlign=middle;whiteSpace=wrap;rounded=0;fontColor=#009900;" vertex="1" parent="WIyWlLk6GJQsqaUBKTNV-1">
          <mxGeometry x="4850" y="3560" width="60" height="30" as="geometry" />
        </mxCell>
        <mxCell id="l--_rwEBYW_ynLptJhpw-248" value="" style="edgeStyle=orthogonalEdgeStyle;rounded=0;orthogonalLoop=1;jettySize=auto;html=1;fontSize=17;fontColor=#000000;endArrow=open;endFill=0;strokeWidth=1;fillColor=#008a00;strokeColor=#005700;" edge="1" parent="WIyWlLk6GJQsqaUBKTNV-1" source="l--_rwEBYW_ynLptJhpw-249" target="l--_rwEBYW_ynLptJhpw-251">
          <mxGeometry relative="1" as="geometry" />
        </mxCell>
        <mxCell id="l--_rwEBYW_ynLptJhpw-249" value="mnpPreValidate.getContractMobileNo()&lt;br&gt;.isNotEmpty()" style="strokeWidth=2;html=1;shape=mxgraph.flowchart.decision;whiteSpace=wrap;flipV=1;fillColor=#d5e8d4;strokeColor=#82b366;" vertex="1" parent="WIyWlLk6GJQsqaUBKTNV-1">
          <mxGeometry x="4710" y="3708.13" width="240" height="171.25" as="geometry" />
        </mxCell>
        <mxCell id="l--_rwEBYW_ynLptJhpw-250" style="edgeStyle=orthogonalEdgeStyle;rounded=0;orthogonalLoop=1;jettySize=auto;html=1;entryX=0.5;entryY=0;entryDx=0;entryDy=0;fontSize=28;fontColor=#FF0000;endArrow=open;endFill=0;strokeWidth=1;" edge="1" parent="WIyWlLk6GJQsqaUBKTNV-1" source="l--_rwEBYW_ynLptJhpw-251" target="l--_rwEBYW_ynLptJhpw-246">
          <mxGeometry relative="1" as="geometry">
            <Array as="points">
              <mxPoint x="4830" y="4090" />
              <mxPoint x="4608" y="4090" />
              <mxPoint x="4608" y="3755" />
              <mxPoint x="4406" y="3755" />
            </Array>
          </mxGeometry>
        </mxCell>
        <mxCell id="l--_rwEBYW_ynLptJhpw-251" value="sendSMSToMobileNo = mnpPreValidate.getContractMobileNo()" style="rounded=1;whiteSpace=wrap;html=1;absoluteArcSize=1;arcSize=14;strokeWidth=1;fillColor=#dae8fc;strokeColor=#6c8ebf;" vertex="1" parent="WIyWlLk6GJQsqaUBKTNV-1">
          <mxGeometry x="4638.61" y="3980" width="382.78" height="40" as="geometry" />
        </mxCell>
        <mxCell id="l--_rwEBYW_ynLptJhpw-252" value="True" style="text;html=1;align=center;verticalAlign=middle;whiteSpace=wrap;rounded=0;fontColor=#009900;" vertex="1" parent="WIyWlLk6GJQsqaUBKTNV-1">
          <mxGeometry x="4830" y="3900" width="60" height="30" as="geometry" />
        </mxCell>
        <mxCell id="l--_rwEBYW_ynLptJhpw-253" value="" style="edgeStyle=orthogonalEdgeStyle;rounded=0;orthogonalLoop=1;jettySize=auto;html=1;fontSize=17;fontColor=#000000;endArrow=open;endFill=0;strokeWidth=1;" edge="1" parent="WIyWlLk6GJQsqaUBKTNV-1" source="l--_rwEBYW_ynLptJhpw-254" target="l--_rwEBYW_ynLptJhpw-257">
          <mxGeometry relative="1" as="geometry" />
        </mxCell>
        <mxCell id="l--_rwEBYW_ynLptJhpw-254" value="voSMS = mobileNumberPortInterfaceService.sendSmsMNP" style="rounded=1;whiteSpace=wrap;html=1;absoluteArcSize=1;arcSize=14;strokeWidth=1;fillColor=#dae8fc;strokeColor=#6c8ebf;" vertex="1" parent="WIyWlLk6GJQsqaUBKTNV-1">
          <mxGeometry x="4234" y="3892.51" width="343.13" height="37.5" as="geometry" />
        </mxCell>
        <mxCell id="l--_rwEBYW_ynLptJhpw-255" value="" style="edgeStyle=orthogonalEdgeStyle;rounded=0;orthogonalLoop=1;jettySize=auto;html=1;fontSize=17;fontColor=#000000;endArrow=open;endFill=0;strokeWidth=1;fillColor=#008a00;strokeColor=#005700;" edge="1" parent="WIyWlLk6GJQsqaUBKTNV-1" source="l--_rwEBYW_ynLptJhpw-257" target="l--_rwEBYW_ynLptJhpw-259">
          <mxGeometry relative="1" as="geometry" />
        </mxCell>
        <mxCell id="l--_rwEBYW_ynLptJhpw-256" style="edgeStyle=orthogonalEdgeStyle;rounded=0;orthogonalLoop=1;jettySize=auto;html=1;fontSize=42;fontColor=#FF0000;endArrow=open;endFill=0;strokeWidth=1;fillColor=#e51400;strokeColor=#B20000;" edge="1" parent="WIyWlLk6GJQsqaUBKTNV-1" source="l--_rwEBYW_ynLptJhpw-257">
          <mxGeometry relative="1" as="geometry">
            <mxPoint x="4679.999999999999" y="4530" as="targetPoint" />
          </mxGeometry>
        </mxCell>
        <mxCell id="l--_rwEBYW_ynLptJhpw-257" value="&lt;p&gt;voSMS != null &amp;amp;&amp;amp;&amp;nbsp;&lt;/p&gt;&lt;p&gt;voSMS.isValid() &amp;amp;&amp;amp;&lt;/p&gt;&lt;p&gt;voSMS.getObject() != null&lt;/p&gt;" style="strokeWidth=2;html=1;shape=mxgraph.flowchart.decision;whiteSpace=wrap;flipV=1;fillColor=#d5e8d4;strokeColor=#82b366;" vertex="1" parent="WIyWlLk6GJQsqaUBKTNV-1">
          <mxGeometry x="4285.5599999999995" y="4048.75" width="240" height="171.25" as="geometry" />
        </mxCell>
        <mxCell id="l--_rwEBYW_ynLptJhpw-258" style="edgeStyle=orthogonalEdgeStyle;rounded=0;orthogonalLoop=1;jettySize=auto;html=1;entryX=0.5;entryY=0;entryDx=0;entryDy=0;fontSize=17;fontColor=#000000;endArrow=open;endFill=0;strokeWidth=1;" edge="1" parent="WIyWlLk6GJQsqaUBKTNV-1" source="l--_rwEBYW_ynLptJhpw-259" target="l--_rwEBYW_ynLptJhpw-264">
          <mxGeometry relative="1" as="geometry">
            <Array as="points">
              <mxPoint x="4406" y="4530" />
              <mxPoint x="5058" y="4530" />
            </Array>
          </mxGeometry>
        </mxCell>
        <mxCell id="l--_rwEBYW_ynLptJhpw-259" value="ErrorMessage = voSMS.getObject()" style="rounded=1;whiteSpace=wrap;html=1;absoluteArcSize=1;arcSize=14;strokeWidth=1;fontColor=#FF0000;" vertex="1" parent="WIyWlLk6GJQsqaUBKTNV-1">
          <mxGeometry x="4269.63" y="4330" width="271.88" height="40" as="geometry" />
        </mxCell>
        <mxCell id="l--_rwEBYW_ynLptJhpw-260" value="True" style="text;html=1;align=center;verticalAlign=middle;whiteSpace=wrap;rounded=0;fontColor=#009900;" vertex="1" parent="WIyWlLk6GJQsqaUBKTNV-1">
          <mxGeometry x="4405.21" y="4230" width="60" height="30" as="geometry" />
        </mxCell>
        <mxCell id="l--_rwEBYW_ynLptJhpw-261" style="edgeStyle=orthogonalEdgeStyle;rounded=0;orthogonalLoop=1;jettySize=auto;html=1;entryX=0.5;entryY=0;entryDx=0;entryDy=0;fontSize=17;fontColor=#FF0000;endArrow=open;endFill=0;strokeWidth=1;" edge="1" parent="WIyWlLk6GJQsqaUBKTNV-1" source="l--_rwEBYW_ynLptJhpw-262" target="l--_rwEBYW_ynLptJhpw-321">
          <mxGeometry relative="1" as="geometry">
            <Array as="points">
              <mxPoint x="5712" y="5070" />
              <mxPoint x="3860" y="5070" />
              <mxPoint x="3860" y="4340" />
              <mxPoint x="3300" y="4340" />
            </Array>
          </mxGeometry>
        </mxCell>
        <mxCell id="l--_rwEBYW_ynLptJhpw-262" value="mobileNumberPortInterfaceService.updateSffServiceRequest(sffServiceRequest)" style="rounded=1;whiteSpace=wrap;html=1;absoluteArcSize=1;arcSize=14;strokeWidth=1;fillColor=#dae8fc;strokeColor=#6c8ebf;" vertex="1" parent="WIyWlLk6GJQsqaUBKTNV-1">
          <mxGeometry x="5477.400000000001" y="4890" width="469.82" height="40" as="geometry" />
        </mxCell>
        <mxCell id="l--_rwEBYW_ynLptJhpw-263" style="edgeStyle=orthogonalEdgeStyle;rounded=0;orthogonalLoop=1;jettySize=auto;html=1;entryX=0.5;entryY=0;entryDx=0;entryDy=0;fontSize=17;fontColor=#FF0000;endArrow=open;endFill=0;strokeWidth=1;exitX=0.5;exitY=1;exitDx=0;exitDy=0;" edge="1" parent="WIyWlLk6GJQsqaUBKTNV-1" source="l--_rwEBYW_ynLptJhpw-264" target="l--_rwEBYW_ynLptJhpw-262">
          <mxGeometry relative="1" as="geometry">
            <Array as="points">
              <mxPoint x="5058" y="4800" />
              <mxPoint x="5712" y="4800" />
            </Array>
          </mxGeometry>
        </mxCell>
        <mxCell id="l--_rwEBYW_ynLptJhpw-264" value="set sffServiceRequest(ErrorMessage, RequestStatusCd(&quot;Done&quot;))" style="rounded=1;whiteSpace=wrap;html=1;absoluteArcSize=1;arcSize=14;strokeWidth=1;fillColor=#e3c800;strokeColor=#B09500;fontColor=#000000;" vertex="1" parent="WIyWlLk6GJQsqaUBKTNV-1">
          <mxGeometry x="4867.860000000001" y="4665" width="380" height="40" as="geometry" />
        </mxCell>
        <mxCell id="l--_rwEBYW_ynLptJhpw-265" value="False" style="text;html=1;strokeColor=none;fillColor=none;align=center;verticalAlign=middle;whiteSpace=wrap;rounded=0;fontColor=#FF0000;" vertex="1" parent="WIyWlLk6GJQsqaUBKTNV-1">
          <mxGeometry x="5610" y="3970" width="60" height="30" as="geometry" />
        </mxCell>
        <mxCell id="l--_rwEBYW_ynLptJhpw-266" value="" style="edgeStyle=orthogonalEdgeStyle;rounded=0;orthogonalLoop=1;jettySize=auto;html=1;fontSize=17;fontColor=#000000;endArrow=open;endFill=0;strokeWidth=1;fillColor=#008a00;strokeColor=#005700;" edge="1" parent="WIyWlLk6GJQsqaUBKTNV-1" source="l--_rwEBYW_ynLptJhpw-268" target="l--_rwEBYW_ynLptJhpw-271">
          <mxGeometry relative="1" as="geometry" />
        </mxCell>
        <mxCell id="l--_rwEBYW_ynLptJhpw-267" style="edgeStyle=orthogonalEdgeStyle;rounded=0;orthogonalLoop=1;jettySize=auto;html=1;entryX=0.5;entryY=0;entryDx=0;entryDy=0;fontSize=17;fontColor=#FF0000;endArrow=open;endFill=0;strokeWidth=1;fillColor=#e51400;strokeColor=#B20000;" edge="1" parent="WIyWlLk6GJQsqaUBKTNV-1" source="l--_rwEBYW_ynLptJhpw-268" target="l--_rwEBYW_ynLptJhpw-293">
          <mxGeometry relative="1" as="geometry" />
        </mxCell>
        <mxCell id="l--_rwEBYW_ynLptJhpw-268" value="mnpPreValidate.getStatusCd() = Cancel || mnpPreValidate.getStatusCd() = Cancelled" style="strokeWidth=2;html=1;shape=mxgraph.flowchart.decision;whiteSpace=wrap;flipV=1;fillColor=#f8cecc;strokeColor=#b85450;" vertex="1" parent="WIyWlLk6GJQsqaUBKTNV-1">
          <mxGeometry x="6220.62" y="2975" width="320" height="152.5" as="geometry" />
        </mxCell>
        <mxCell id="l--_rwEBYW_ynLptJhpw-269" value="False" style="text;html=1;strokeColor=none;fillColor=none;align=center;verticalAlign=middle;whiteSpace=wrap;rounded=0;fontColor=#FF0000;" vertex="1" parent="WIyWlLk6GJQsqaUBKTNV-1">
          <mxGeometry x="5220.35" y="3017.5" width="60" height="30" as="geometry" />
        </mxCell>
        <mxCell id="l--_rwEBYW_ynLptJhpw-270" value="" style="edgeStyle=orthogonalEdgeStyle;rounded=0;orthogonalLoop=1;jettySize=auto;html=1;fontSize=17;fontColor=#000000;endArrow=open;endFill=0;strokeWidth=1;" edge="1" parent="WIyWlLk6GJQsqaUBKTNV-1" source="l--_rwEBYW_ynLptJhpw-271">
          <mxGeometry relative="1" as="geometry">
            <mxPoint x="6380.619999999999" y="3330" as="targetPoint" />
          </mxGeometry>
        </mxCell>
        <mxCell id="l--_rwEBYW_ynLptJhpw-271" value="String sendSMSToMobileNo = mnpPreValidate.getMobileNo();" style="rounded=1;whiteSpace=wrap;html=1;absoluteArcSize=1;arcSize=14;strokeWidth=1;fillColor=#dae8fc;strokeColor=#6c8ebf;" vertex="1" parent="WIyWlLk6GJQsqaUBKTNV-1">
          <mxGeometry x="6209.0599999999995" y="3212.5" width="343.13" height="37.5" as="geometry" />
        </mxCell>
        <mxCell id="l--_rwEBYW_ynLptJhpw-272" value="" style="edgeStyle=orthogonalEdgeStyle;rounded=0;orthogonalLoop=1;jettySize=auto;html=1;fontSize=17;fontColor=#FF0000;endArrow=open;endFill=0;strokeWidth=1;fillColor=#008a00;strokeColor=#005700;" edge="1" parent="WIyWlLk6GJQsqaUBKTNV-1" source="l--_rwEBYW_ynLptJhpw-273" target="l--_rwEBYW_ynLptJhpw-275">
          <mxGeometry relative="1" as="geometry" />
        </mxCell>
        <mxCell id="l--_rwEBYW_ynLptJhpw-273" value="&lt;p&gt;mnpPreValidate.getContractMobileNo()&lt;/p&gt;&lt;p&gt;.isNotEmpty()&lt;/p&gt;" style="strokeWidth=2;html=1;shape=mxgraph.flowchart.decision;whiteSpace=wrap;flipV=1;fillColor=#d5e8d4;strokeColor=#82b366;" vertex="1" parent="WIyWlLk6GJQsqaUBKTNV-1">
          <mxGeometry x="5947.22" y="3685.63" width="281.22" height="158.75" as="geometry" />
        </mxCell>
        <mxCell id="l--_rwEBYW_ynLptJhpw-274" style="edgeStyle=orthogonalEdgeStyle;rounded=0;orthogonalLoop=1;jettySize=auto;html=1;entryX=0;entryY=0.5;entryDx=0;entryDy=0;fontSize=17;fontColor=#FF0000;endArrow=open;endFill=0;strokeWidth=1;exitX=0.5;exitY=1;exitDx=0;exitDy=0;" edge="1" parent="WIyWlLk6GJQsqaUBKTNV-1" source="l--_rwEBYW_ynLptJhpw-275" target="l--_rwEBYW_ynLptJhpw-280">
          <mxGeometry relative="1" as="geometry" />
        </mxCell>
        <mxCell id="l--_rwEBYW_ynLptJhpw-275" value="String sendSMSToMobileNo = mnpPreValidate.getMobileNo();" style="rounded=1;whiteSpace=wrap;html=1;absoluteArcSize=1;arcSize=14;strokeWidth=1;fillColor=#dae8fc;strokeColor=#6c8ebf;" vertex="1" parent="WIyWlLk6GJQsqaUBKTNV-1">
          <mxGeometry x="5916.2699999999995" y="3956.25" width="343.13" height="37.5" as="geometry" />
        </mxCell>
        <mxCell id="l--_rwEBYW_ynLptJhpw-276" value="" style="edgeStyle=orthogonalEdgeStyle;rounded=0;orthogonalLoop=1;jettySize=auto;html=1;fontSize=17;fontColor=#FF0000;endArrow=open;endFill=0;strokeWidth=1;" edge="1" parent="WIyWlLk6GJQsqaUBKTNV-1" source="l--_rwEBYW_ynLptJhpw-277" target="l--_rwEBYW_ynLptJhpw-289">
          <mxGeometry relative="1" as="geometry" />
        </mxCell>
        <mxCell id="l--_rwEBYW_ynLptJhpw-277" value="&lt;span style=&quot;&quot;&gt;errorMessage = &quot;Mobile no. &quot; + inputMnpPreValidate.getMobileNo() + &quot; have cancel of status Pre Validate&quot;;&lt;/span&gt;" style="rounded=1;whiteSpace=wrap;html=1;absoluteArcSize=1;arcSize=14;strokeWidth=1;fontColor=#FF0000;" vertex="1" parent="WIyWlLk6GJQsqaUBKTNV-1">
          <mxGeometry x="6193.89" y="3330" width="373.44" height="70" as="geometry" />
        </mxCell>
        <mxCell id="l--_rwEBYW_ynLptJhpw-278" value="True" style="text;html=1;align=center;verticalAlign=middle;whiteSpace=wrap;rounded=0;fontColor=#009900;" vertex="1" parent="WIyWlLk6GJQsqaUBKTNV-1">
          <mxGeometry x="6170" y="3560" width="60" height="30" as="geometry" />
        </mxCell>
        <mxCell id="l--_rwEBYW_ynLptJhpw-279" style="edgeStyle=orthogonalEdgeStyle;rounded=0;orthogonalLoop=1;jettySize=auto;html=1;entryX=0.5;entryY=0;entryDx=0;entryDy=0;fontSize=17;fontColor=#FF0000;endArrow=open;endFill=0;strokeWidth=1;" edge="1" parent="WIyWlLk6GJQsqaUBKTNV-1" source="l--_rwEBYW_ynLptJhpw-280" target="l--_rwEBYW_ynLptJhpw-282">
          <mxGeometry relative="1" as="geometry" />
        </mxCell>
        <mxCell id="l--_rwEBYW_ynLptJhpw-280" value="&lt;p&gt;mobileNumberPortInterfaceService.sendSmsMNP&lt;/p&gt;&lt;p&gt;(sendSMSToMobileNo, TransactionChannel.BATCH.getValue(),&lt;/p&gt;&lt;p&gt;&quot;Cancelled&quot;, &quot;MNP_PREVALIDATE_SMS&quot;);&lt;/p&gt;" style="rounded=1;whiteSpace=wrap;html=1;absoluteArcSize=1;arcSize=14;strokeWidth=1;fillColor=#dae8fc;strokeColor=#6c8ebf;" vertex="1" parent="WIyWlLk6GJQsqaUBKTNV-1">
          <mxGeometry x="6200.610000000001" y="4090" width="360" height="86.25" as="geometry" />
        </mxCell>
        <mxCell id="l--_rwEBYW_ynLptJhpw-281" style="edgeStyle=orthogonalEdgeStyle;rounded=0;orthogonalLoop=1;jettySize=auto;html=1;entryX=0.5;entryY=0;entryDx=0;entryDy=0;fontSize=17;fontColor=#FF0000;endArrow=open;endFill=0;strokeWidth=1;exitX=0.5;exitY=1;exitDx=0;exitDy=0;" edge="1" parent="WIyWlLk6GJQsqaUBKTNV-1" source="l--_rwEBYW_ynLptJhpw-282" target="l--_rwEBYW_ynLptJhpw-262">
          <mxGeometry relative="1" as="geometry">
            <Array as="points">
              <mxPoint x="6381" y="4800" />
              <mxPoint x="5712" y="4800" />
            </Array>
          </mxGeometry>
        </mxCell>
        <mxCell id="l--_rwEBYW_ynLptJhpw-282" value="set sffServiceRequest(ErrorMessage, RequestStatusCd(&quot;Cancel&quot;))" style="rounded=1;whiteSpace=wrap;html=1;absoluteArcSize=1;arcSize=14;strokeWidth=1;fillColor=#e3c800;strokeColor=#B09500;fontColor=#000000;" vertex="1" parent="WIyWlLk6GJQsqaUBKTNV-1">
          <mxGeometry x="6190.610000000001" y="4660" width="380" height="40" as="geometry" />
        </mxCell>
        <mxCell id="l--_rwEBYW_ynLptJhpw-283" style="edgeStyle=orthogonalEdgeStyle;rounded=0;orthogonalLoop=1;jettySize=auto;html=1;entryX=0.5;entryY=0;entryDx=0;entryDy=0;fontSize=17;fontColor=#FF0000;endArrow=open;endFill=0;strokeWidth=1;" edge="1" parent="WIyWlLk6GJQsqaUBKTNV-1" source="l--_rwEBYW_ynLptJhpw-284" target="l--_rwEBYW_ynLptJhpw-262">
          <mxGeometry relative="1" as="geometry">
            <Array as="points">
              <mxPoint x="4180" y="4800" />
              <mxPoint x="5712" y="4800" />
            </Array>
          </mxGeometry>
        </mxCell>
        <mxCell id="l--_rwEBYW_ynLptJhpw-284" value="set sffServiceRequest(ErrorMessage, RequestStatusCd(&quot;Failed&quot;))" style="rounded=1;whiteSpace=wrap;html=1;absoluteArcSize=1;arcSize=14;strokeWidth=1;fillColor=#e3c800;strokeColor=#B09500;fontColor=#000000;" vertex="1" parent="WIyWlLk6GJQsqaUBKTNV-1">
          <mxGeometry x="3990.0000000000005" y="4665" width="380" height="40" as="geometry" />
        </mxCell>
        <mxCell id="l--_rwEBYW_ynLptJhpw-285" value="True" style="text;html=1;align=center;verticalAlign=middle;whiteSpace=wrap;rounded=0;fontColor=#009900;" vertex="1" parent="WIyWlLk6GJQsqaUBKTNV-1">
          <mxGeometry x="6390" y="3127.5" width="60" height="30" as="geometry" />
        </mxCell>
        <mxCell id="l--_rwEBYW_ynLptJhpw-286" style="edgeStyle=orthogonalEdgeStyle;rounded=0;orthogonalLoop=1;jettySize=auto;html=1;fontSize=17;fontColor=#FF0000;endArrow=open;endFill=0;strokeWidth=1;exitX=0;exitY=0.5;exitDx=0;exitDy=0;exitPerimeter=0;fillColor=#008a00;strokeColor=#005700;" edge="1" parent="WIyWlLk6GJQsqaUBKTNV-1" source="l--_rwEBYW_ynLptJhpw-289" target="l--_rwEBYW_ynLptJhpw-273">
          <mxGeometry relative="1" as="geometry" />
        </mxCell>
        <mxCell id="l--_rwEBYW_ynLptJhpw-287" style="edgeStyle=orthogonalEdgeStyle;rounded=0;orthogonalLoop=1;jettySize=auto;html=1;entryX=0.5;entryY=0;entryDx=0;entryDy=0;fontSize=17;fontColor=#FF0000;endArrow=open;endFill=0;strokeWidth=1;exitX=1;exitY=0.5;exitDx=0;exitDy=0;exitPerimeter=0;fillColor=#e51400;strokeColor=#B20000;" edge="1" parent="WIyWlLk6GJQsqaUBKTNV-1" source="l--_rwEBYW_ynLptJhpw-273" target="l--_rwEBYW_ynLptJhpw-280">
          <mxGeometry relative="1" as="geometry" />
        </mxCell>
        <mxCell id="l--_rwEBYW_ynLptJhpw-288" style="edgeStyle=orthogonalEdgeStyle;rounded=0;orthogonalLoop=1;jettySize=auto;html=1;entryX=0.5;entryY=0;entryDx=0;entryDy=0;fontSize=17;fontColor=#FF0000;endArrow=open;endFill=0;strokeWidth=1;fillColor=#e51400;strokeColor=#B20000;" edge="1" parent="WIyWlLk6GJQsqaUBKTNV-1" source="l--_rwEBYW_ynLptJhpw-289" target="l--_rwEBYW_ynLptJhpw-282">
          <mxGeometry relative="1" as="geometry">
            <Array as="points">
              <mxPoint x="6660" y="3589" />
              <mxPoint x="6660" y="4260" />
              <mxPoint x="6381" y="4260" />
            </Array>
          </mxGeometry>
        </mxCell>
        <mxCell id="l--_rwEBYW_ynLptJhpw-289" value="&lt;p&gt;mnpPreValidate.getCorpLotId()&lt;/p&gt;&lt;p&gt;.isEmpty()&lt;/p&gt;" style="strokeWidth=2;html=1;shape=mxgraph.flowchart.decision;whiteSpace=wrap;flipV=1;fillColor=#d5e8d4;strokeColor=#82b366;" vertex="1" parent="WIyWlLk6GJQsqaUBKTNV-1">
          <mxGeometry x="6249.54" y="3508.76" width="262.17" height="161.24" as="geometry" />
        </mxCell>
        <mxCell id="l--_rwEBYW_ynLptJhpw-290" value="True" style="text;html=1;align=center;verticalAlign=middle;whiteSpace=wrap;rounded=0;fontColor=#009900;" vertex="1" parent="WIyWlLk6GJQsqaUBKTNV-1">
          <mxGeometry x="6090" y="3875" width="60" height="30" as="geometry" />
        </mxCell>
        <mxCell id="l--_rwEBYW_ynLptJhpw-291" value="False" style="text;html=1;strokeColor=none;fillColor=none;align=center;verticalAlign=middle;whiteSpace=wrap;rounded=0;fontColor=#FF0000;" vertex="1" parent="WIyWlLk6GJQsqaUBKTNV-1">
          <mxGeometry x="6240" y="3730" width="60" height="30" as="geometry" />
        </mxCell>
        <mxCell id="l--_rwEBYW_ynLptJhpw-292" value="" style="edgeStyle=orthogonalEdgeStyle;rounded=0;orthogonalLoop=1;jettySize=auto;html=1;fontSize=17;fontColor=#FF0000;endArrow=open;endFill=0;strokeWidth=1;" edge="1" parent="WIyWlLk6GJQsqaUBKTNV-1" source="l--_rwEBYW_ynLptJhpw-293" target="l--_rwEBYW_ynLptJhpw-296">
          <mxGeometry relative="1" as="geometry" />
        </mxCell>
        <mxCell id="l--_rwEBYW_ynLptJhpw-293" value="String sendSMSToMobileNo = mnpPreValidate.getMobileNo()" style="rounded=1;whiteSpace=wrap;html=1;absoluteArcSize=1;arcSize=14;strokeWidth=1;fillColor=#dae8fc;strokeColor=#6c8ebf;" vertex="1" parent="WIyWlLk6GJQsqaUBKTNV-1">
          <mxGeometry x="7205.15" y="3210" width="343.13" height="37.5" as="geometry" />
        </mxCell>
        <mxCell id="l--_rwEBYW_ynLptJhpw-294" value="False" style="text;html=1;strokeColor=none;fillColor=none;align=center;verticalAlign=middle;whiteSpace=wrap;rounded=0;fontColor=#FF0000;" vertex="1" parent="WIyWlLk6GJQsqaUBKTNV-1">
          <mxGeometry x="6552.19" y="3015" width="60" height="30" as="geometry" />
        </mxCell>
        <mxCell id="l--_rwEBYW_ynLptJhpw-295" value="" style="edgeStyle=orthogonalEdgeStyle;rounded=0;orthogonalLoop=1;jettySize=auto;html=1;fontSize=17;fontColor=#FF0000;endArrow=open;endFill=0;strokeWidth=1;" edge="1" parent="WIyWlLk6GJQsqaUBKTNV-1" source="l--_rwEBYW_ynLptJhpw-296" target="l--_rwEBYW_ynLptJhpw-300">
          <mxGeometry relative="1" as="geometry" />
        </mxCell>
        <mxCell id="l--_rwEBYW_ynLptJhpw-296" value="&lt;p&gt;errorMessage = &quot;Mobile no. &quot; + inputMnpPreValidate.getMobileNo() +&lt;/p&gt;&lt;p&gt;&quot; have WaitNextDay of status Pre Validate&quot;;&lt;/p&gt;" style="rounded=1;whiteSpace=wrap;html=1;absoluteArcSize=1;arcSize=14;strokeWidth=1;fontColor=#FF0000;" vertex="1" parent="WIyWlLk6GJQsqaUBKTNV-1">
          <mxGeometry x="7190" y="3330" width="373.44" height="70" as="geometry" />
        </mxCell>
        <mxCell id="l--_rwEBYW_ynLptJhpw-297" style="edgeStyle=orthogonalEdgeStyle;rounded=0;orthogonalLoop=1;jettySize=auto;html=1;fontSize=17;fontColor=#FF0000;endArrow=open;endFill=0;strokeWidth=1;fillColor=#008a00;strokeColor=#005700;" edge="1" parent="WIyWlLk6GJQsqaUBKTNV-1" source="l--_rwEBYW_ynLptJhpw-300" target="l--_rwEBYW_ynLptJhpw-302">
          <mxGeometry relative="1" as="geometry" />
        </mxCell>
        <mxCell id="l--_rwEBYW_ynLptJhpw-298" style="edgeStyle=orthogonalEdgeStyle;rounded=0;orthogonalLoop=1;jettySize=auto;html=1;entryX=0.5;entryY=0;entryDx=0;entryDy=0;fontSize=17;fontColor=#FF0000;endArrow=open;endFill=0;strokeWidth=1;fillColor=#e51400;strokeColor=#B20000;exitX=1;exitY=0.5;exitDx=0;exitDy=0;exitPerimeter=0;" edge="1" parent="WIyWlLk6GJQsqaUBKTNV-1" source="l--_rwEBYW_ynLptJhpw-302" target="l--_rwEBYW_ynLptJhpw-308">
          <mxGeometry relative="1" as="geometry" />
        </mxCell>
        <mxCell id="l--_rwEBYW_ynLptJhpw-299" style="edgeStyle=orthogonalEdgeStyle;rounded=0;orthogonalLoop=1;jettySize=auto;html=1;fontSize=17;fontColor=#FF0000;endArrow=open;endFill=0;strokeWidth=1;fillColor=#e51400;strokeColor=#B20000;" edge="1" parent="WIyWlLk6GJQsqaUBKTNV-1" source="l--_rwEBYW_ynLptJhpw-300">
          <mxGeometry relative="1" as="geometry">
            <mxPoint x="7377" y="4660" as="targetPoint" />
            <Array as="points">
              <mxPoint x="7720" y="3589" />
              <mxPoint x="7720" y="4600" />
              <mxPoint x="7377" y="4600" />
            </Array>
          </mxGeometry>
        </mxCell>
        <mxCell id="l--_rwEBYW_ynLptJhpw-300" value="&lt;p&gt;mnpPreValidate.getCorpLotId()&lt;/p&gt;&lt;p&gt;.isEmpty()&lt;/p&gt;" style="strokeWidth=2;html=1;shape=mxgraph.flowchart.decision;whiteSpace=wrap;flipV=1;fillColor=#d5e8d4;strokeColor=#82b366;" vertex="1" parent="WIyWlLk6GJQsqaUBKTNV-1">
          <mxGeometry x="7245.639999999999" y="3508.76" width="262.17" height="161.24" as="geometry" />
        </mxCell>
        <mxCell id="l--_rwEBYW_ynLptJhpw-301" value="" style="edgeStyle=orthogonalEdgeStyle;rounded=0;orthogonalLoop=1;jettySize=auto;html=1;fontSize=17;fontColor=#FF0000;endArrow=open;endFill=0;strokeWidth=1;fillColor=#008a00;strokeColor=#005700;" edge="1" parent="WIyWlLk6GJQsqaUBKTNV-1" source="l--_rwEBYW_ynLptJhpw-302" target="l--_rwEBYW_ynLptJhpw-304">
          <mxGeometry relative="1" as="geometry" />
        </mxCell>
        <mxCell id="l--_rwEBYW_ynLptJhpw-302" value="&lt;p&gt;mnpPreValidate.getContractMobileNo()&lt;/p&gt;&lt;p&gt;.isNotEmpty()&lt;/p&gt;" style="strokeWidth=2;html=1;shape=mxgraph.flowchart.decision;whiteSpace=wrap;flipV=1;fillColor=#d5e8d4;strokeColor=#82b366;" vertex="1" parent="WIyWlLk6GJQsqaUBKTNV-1">
          <mxGeometry x="6920.950000000001" y="3685.63" width="281.22" height="158.75" as="geometry" />
        </mxCell>
        <mxCell id="l--_rwEBYW_ynLptJhpw-303" style="edgeStyle=orthogonalEdgeStyle;rounded=0;orthogonalLoop=1;jettySize=auto;html=1;entryX=0;entryY=0.5;entryDx=0;entryDy=0;fontSize=17;fontColor=#FF0000;endArrow=open;endFill=0;strokeWidth=1;exitX=0.5;exitY=1;exitDx=0;exitDy=0;" edge="1" parent="WIyWlLk6GJQsqaUBKTNV-1" source="l--_rwEBYW_ynLptJhpw-304" target="l--_rwEBYW_ynLptJhpw-308">
          <mxGeometry relative="1" as="geometry" />
        </mxCell>
        <mxCell id="l--_rwEBYW_ynLptJhpw-304" value="String sendSMSToMobileNo = mnpPreValidate.getMobileNo();" style="rounded=1;whiteSpace=wrap;html=1;absoluteArcSize=1;arcSize=14;strokeWidth=1;fillColor=#dae8fc;strokeColor=#6c8ebf;" vertex="1" parent="WIyWlLk6GJQsqaUBKTNV-1">
          <mxGeometry x="6890" y="3956.25" width="343.13" height="37.5" as="geometry" />
        </mxCell>
        <mxCell id="l--_rwEBYW_ynLptJhpw-305" value="True" style="text;html=1;align=center;verticalAlign=middle;whiteSpace=wrap;rounded=0;fontColor=#009900;" vertex="1" parent="WIyWlLk6GJQsqaUBKTNV-1">
          <mxGeometry x="7150" y="3560" width="60" height="30" as="geometry" />
        </mxCell>
        <mxCell id="l--_rwEBYW_ynLptJhpw-306" value="True" style="text;html=1;align=center;verticalAlign=middle;whiteSpace=wrap;rounded=0;fontColor=#009900;" vertex="1" parent="WIyWlLk6GJQsqaUBKTNV-1">
          <mxGeometry x="7060" y="3875" width="60" height="30" as="geometry" />
        </mxCell>
        <mxCell id="l--_rwEBYW_ynLptJhpw-307" style="edgeStyle=orthogonalEdgeStyle;rounded=0;orthogonalLoop=1;jettySize=auto;html=1;entryX=0.5;entryY=1;entryDx=0;entryDy=0;entryPerimeter=0;fontSize=17;fontColor=#FF0000;endArrow=open;endFill=0;strokeWidth=1;" edge="1" parent="WIyWlLk6GJQsqaUBKTNV-1" source="l--_rwEBYW_ynLptJhpw-308" target="l--_rwEBYW_ynLptJhpw-313">
          <mxGeometry relative="1" as="geometry" />
        </mxCell>
        <mxCell id="l--_rwEBYW_ynLptJhpw-308" value="&lt;p&gt;voSMS = mobileNumberPortInterfaceService.sendSmsMNP&lt;/p&gt;&lt;p&gt;(sendSMSToMobileNo, TransactionChannel.BATCH.getValue(),&lt;/p&gt;&lt;p&gt; &quot;WaitNextDay&quot;, &quot;MNP_PREVALIDATE_SMS&quot;);&lt;/p&gt;" style="rounded=1;whiteSpace=wrap;html=1;absoluteArcSize=1;arcSize=14;strokeWidth=1;fillColor=#dae8fc;strokeColor=#6c8ebf;" vertex="1" parent="WIyWlLk6GJQsqaUBKTNV-1">
          <mxGeometry x="7190" y="4080" width="373.13" height="85" as="geometry" />
        </mxCell>
        <mxCell id="l--_rwEBYW_ynLptJhpw-309" value="False" style="text;html=1;strokeColor=none;fillColor=none;align=center;verticalAlign=middle;whiteSpace=wrap;rounded=0;fontColor=#FF0000;" vertex="1" parent="WIyWlLk6GJQsqaUBKTNV-1">
          <mxGeometry x="7233.13" y="3730" width="60" height="30" as="geometry" />
        </mxCell>
        <mxCell id="l--_rwEBYW_ynLptJhpw-310" value="False" style="text;html=1;strokeColor=none;fillColor=none;align=center;verticalAlign=middle;whiteSpace=wrap;rounded=0;fontColor=#FF0000;" vertex="1" parent="WIyWlLk6GJQsqaUBKTNV-1">
          <mxGeometry x="6520" y="3560" width="60" height="30" as="geometry" />
        </mxCell>
        <mxCell id="l--_rwEBYW_ynLptJhpw-311" value="" style="edgeStyle=orthogonalEdgeStyle;rounded=0;orthogonalLoop=1;jettySize=auto;html=1;fontSize=17;fontColor=#FF0000;endArrow=open;endFill=0;strokeWidth=1;fillColor=#008a00;strokeColor=#005700;" edge="1" parent="WIyWlLk6GJQsqaUBKTNV-1" source="l--_rwEBYW_ynLptJhpw-313" target="l--_rwEBYW_ynLptJhpw-315">
          <mxGeometry relative="1" as="geometry" />
        </mxCell>
        <mxCell id="l--_rwEBYW_ynLptJhpw-312" style="edgeStyle=orthogonalEdgeStyle;rounded=0;orthogonalLoop=1;jettySize=auto;html=1;entryX=0.5;entryY=0;entryDx=0;entryDy=0;fontSize=42;fontColor=#FF0000;endArrow=open;endFill=0;strokeWidth=1;fillColor=#e51400;strokeColor=#B20000;" edge="1" parent="WIyWlLk6GJQsqaUBKTNV-1" source="l--_rwEBYW_ynLptJhpw-313" target="l--_rwEBYW_ynLptJhpw-318">
          <mxGeometry relative="1" as="geometry">
            <Array as="points">
              <mxPoint x="7040" y="4339" />
              <mxPoint x="7040" y="4600" />
              <mxPoint x="7377" y="4600" />
            </Array>
          </mxGeometry>
        </mxCell>
        <mxCell id="l--_rwEBYW_ynLptJhpw-313" value="&lt;p&gt;voSMS != null &amp;amp;&amp;amp; voSMS.isValid() &amp;amp;&amp;amp; null != voSMS.getObject()&lt;br&gt;&lt;/p&gt;" style="strokeWidth=2;html=1;shape=mxgraph.flowchart.decision;whiteSpace=wrap;flipV=1;fillColor=#d5e8d4;strokeColor=#82b366;" vertex="1" parent="WIyWlLk6GJQsqaUBKTNV-1">
          <mxGeometry x="7236.110000000001" y="4260" width="281.22" height="158.75" as="geometry" />
        </mxCell>
        <mxCell id="l--_rwEBYW_ynLptJhpw-314" value="" style="edgeStyle=orthogonalEdgeStyle;rounded=0;orthogonalLoop=1;jettySize=auto;html=1;fontSize=17;fontColor=#FF0000;endArrow=open;endFill=0;strokeWidth=1;" edge="1" parent="WIyWlLk6GJQsqaUBKTNV-1" source="l--_rwEBYW_ynLptJhpw-315" target="l--_rwEBYW_ynLptJhpw-318">
          <mxGeometry relative="1" as="geometry" />
        </mxCell>
        <mxCell id="l--_rwEBYW_ynLptJhpw-315" value="&lt;p&gt;errorMessage = voSMS.getObject()&lt;br&gt;&lt;/p&gt;" style="rounded=1;whiteSpace=wrap;html=1;absoluteArcSize=1;arcSize=14;strokeWidth=1;fontColor=#FF0000;" vertex="1" parent="WIyWlLk6GJQsqaUBKTNV-1">
          <mxGeometry x="7221.570000000001" y="4520" width="309.99" height="40" as="geometry" />
        </mxCell>
        <mxCell id="l--_rwEBYW_ynLptJhpw-316" value="True" style="text;html=1;align=center;verticalAlign=middle;whiteSpace=wrap;rounded=0;fontColor=#009900;" vertex="1" parent="WIyWlLk6GJQsqaUBKTNV-1">
          <mxGeometry x="7370" y="4450" width="60" height="30" as="geometry" />
        </mxCell>
        <mxCell id="l--_rwEBYW_ynLptJhpw-317" style="edgeStyle=orthogonalEdgeStyle;rounded=0;orthogonalLoop=1;jettySize=auto;html=1;entryX=0.5;entryY=0;entryDx=0;entryDy=0;fontSize=17;fontColor=#FF0000;endArrow=open;endFill=0;strokeWidth=1;" edge="1" parent="WIyWlLk6GJQsqaUBKTNV-1" source="l--_rwEBYW_ynLptJhpw-318" target="l--_rwEBYW_ynLptJhpw-262">
          <mxGeometry relative="1" as="geometry">
            <Array as="points">
              <mxPoint x="7377" y="4800" />
              <mxPoint x="5712" y="4800" />
            </Array>
          </mxGeometry>
        </mxCell>
        <mxCell id="l--_rwEBYW_ynLptJhpw-318" value="set sffServiceRequest(ErrorMessage, RequestStatusCd(&quot;WaitNextDay&quot;))" style="rounded=1;whiteSpace=wrap;html=1;absoluteArcSize=1;arcSize=14;strokeWidth=1;fillColor=#e3c800;strokeColor=#B09500;fontColor=#000000;" vertex="1" parent="WIyWlLk6GJQsqaUBKTNV-1">
          <mxGeometry x="7168.13" y="4660" width="416.87" height="40" as="geometry" />
        </mxCell>
        <mxCell id="l--_rwEBYW_ynLptJhpw-319" value="False" style="text;html=1;strokeColor=none;fillColor=none;align=center;verticalAlign=middle;whiteSpace=wrap;rounded=0;fontColor=#FF0000;" vertex="1" parent="WIyWlLk6GJQsqaUBKTNV-1">
          <mxGeometry x="7531.56" y="3560" width="60" height="30" as="geometry" />
        </mxCell>
        <mxCell id="l--_rwEBYW_ynLptJhpw-320" value="" style="edgeStyle=orthogonalEdgeStyle;rounded=0;orthogonalLoop=1;jettySize=auto;html=1;endArrow=open;endFill=0;strokeWidth=1;" edge="1" parent="WIyWlLk6GJQsqaUBKTNV-1" source="l--_rwEBYW_ynLptJhpw-321" target="l--_rwEBYW_ynLptJhpw-323">
          <mxGeometry relative="1" as="geometry" />
        </mxCell>
        <mxCell id="l--_rwEBYW_ynLptJhpw-321" value="set parameters Parameter[2]" style="rounded=1;whiteSpace=wrap;html=1;absoluteArcSize=1;arcSize=14;strokeWidth=1;fillColor=#dae8fc;strokeColor=#6c8ebf;" vertex="1" parent="WIyWlLk6GJQsqaUBKTNV-1">
          <mxGeometry x="3207.6" y="4440" width="185" height="40" as="geometry" />
        </mxCell>
        <mxCell id="l--_rwEBYW_ynLptJhpw-322" value="" style="edgeStyle=orthogonalEdgeStyle;rounded=0;orthogonalLoop=1;jettySize=auto;html=1;endArrow=open;endFill=0;strokeWidth=1;" edge="1" parent="WIyWlLk6GJQsqaUBKTNV-1" source="l--_rwEBYW_ynLptJhpw-323" target="l--_rwEBYW_ynLptJhpw-325">
          <mxGeometry relative="1" as="geometry" />
        </mxCell>
        <mxCell id="l--_rwEBYW_ynLptJhpw-323" value="set parameter Parameter" style="rounded=1;whiteSpace=wrap;html=1;absoluteArcSize=1;arcSize=14;strokeWidth=1;fillColor=#dae8fc;strokeColor=#6c8ebf;" vertex="1" parent="WIyWlLk6GJQsqaUBKTNV-1">
          <mxGeometry x="3207.6" y="4545" width="185" height="40" as="geometry" />
        </mxCell>
        <mxCell id="l--_rwEBYW_ynLptJhpw-324" value="" style="edgeStyle=orthogonalEdgeStyle;rounded=0;orthogonalLoop=1;jettySize=auto;html=1;endArrow=open;endFill=0;strokeWidth=1;" edge="1" parent="WIyWlLk6GJQsqaUBKTNV-1" source="l--_rwEBYW_ynLptJhpw-325" target="l--_rwEBYW_ynLptJhpw-327">
          <mxGeometry relative="1" as="geometry" />
        </mxCell>
        <mxCell id="l--_rwEBYW_ynLptJhpw-325" value="set parameter(Name(status), Value(Success))&amp;nbsp;" style="rounded=1;whiteSpace=wrap;html=1;absoluteArcSize=1;arcSize=14;strokeWidth=1;fillColor=#dae8fc;strokeColor=#6c8ebf;" vertex="1" parent="WIyWlLk6GJQsqaUBKTNV-1">
          <mxGeometry x="3174.47" y="4645" width="251.25" height="40" as="geometry" />
        </mxCell>
        <mxCell id="l--_rwEBYW_ynLptJhpw-326" value="" style="edgeStyle=orthogonalEdgeStyle;rounded=0;orthogonalLoop=1;jettySize=auto;html=1;endArrow=open;endFill=0;strokeWidth=1;" edge="1" parent="WIyWlLk6GJQsqaUBKTNV-1" source="l--_rwEBYW_ynLptJhpw-327" target="l--_rwEBYW_ynLptJhpw-329">
          <mxGeometry relative="1" as="geometry" />
        </mxCell>
        <mxCell id="l--_rwEBYW_ynLptJhpw-327" value="parameters[0] =&amp;nbsp;&amp;nbsp;parameter" style="rounded=1;whiteSpace=wrap;html=1;absoluteArcSize=1;arcSize=14;strokeWidth=1;fillColor=#dae8fc;strokeColor=#6c8ebf;" vertex="1" parent="WIyWlLk6GJQsqaUBKTNV-1">
          <mxGeometry x="3174.47" y="4745" width="251.25" height="40" as="geometry" />
        </mxCell>
        <mxCell id="l--_rwEBYW_ynLptJhpw-328" value="" style="edgeStyle=orthogonalEdgeStyle;rounded=0;orthogonalLoop=1;jettySize=auto;html=1;endArrow=open;endFill=0;strokeWidth=1;" edge="1" parent="WIyWlLk6GJQsqaUBKTNV-1" source="l--_rwEBYW_ynLptJhpw-329">
          <mxGeometry relative="1" as="geometry">
            <mxPoint x="3300.1000000000004" y="4945" as="targetPoint" />
          </mxGeometry>
        </mxCell>
        <mxCell id="l--_rwEBYW_ynLptJhpw-329" value="set parameter Parameter" style="rounded=1;whiteSpace=wrap;html=1;absoluteArcSize=1;arcSize=14;strokeWidth=1;fillColor=#dae8fc;strokeColor=#6c8ebf;" vertex="1" parent="WIyWlLk6GJQsqaUBKTNV-1">
          <mxGeometry x="3207.6" y="4840" width="185" height="40" as="geometry" />
        </mxCell>
        <mxCell id="l--_rwEBYW_ynLptJhpw-330" value="" style="edgeStyle=orthogonalEdgeStyle;rounded=0;orthogonalLoop=1;jettySize=auto;html=1;endArrow=open;endFill=0;strokeWidth=1;" edge="1" parent="WIyWlLk6GJQsqaUBKTNV-1" source="l--_rwEBYW_ynLptJhpw-331" target="l--_rwEBYW_ynLptJhpw-333">
          <mxGeometry relative="1" as="geometry" />
        </mxCell>
        <mxCell id="l--_rwEBYW_ynLptJhpw-331" value="set parameter(Name(errorMessage), Value(errorMessage))&amp;nbsp;" style="rounded=1;whiteSpace=wrap;html=1;absoluteArcSize=1;arcSize=14;strokeWidth=1;fillColor=#dae8fc;strokeColor=#6c8ebf;" vertex="1" parent="WIyWlLk6GJQsqaUBKTNV-1">
          <mxGeometry x="3174.47" y="4935" width="251.25" height="40" as="geometry" />
        </mxCell>
        <mxCell id="l--_rwEBYW_ynLptJhpw-332" style="edgeStyle=orthogonalEdgeStyle;rounded=0;orthogonalLoop=1;jettySize=auto;html=1;entryX=0.5;entryY=0;entryDx=0;entryDy=0;fontSize=17;fontColor=#FF0000;endArrow=open;endFill=0;strokeWidth=1;exitX=0.5;exitY=1;exitDx=0;exitDy=0;" edge="1" parent="WIyWlLk6GJQsqaUBKTNV-1" source="l--_rwEBYW_ynLptJhpw-333" target="l--_rwEBYW_ynLptJhpw-189">
          <mxGeometry relative="1" as="geometry">
            <Array as="points">
              <mxPoint x="3300" y="5300" />
              <mxPoint x="2808" y="5300" />
            </Array>
          </mxGeometry>
        </mxCell>
        <mxCell id="l--_rwEBYW_ynLptJhpw-333" value="parameters[1] =&amp;nbsp;&amp;nbsp;parameter" style="rounded=1;whiteSpace=wrap;html=1;absoluteArcSize=1;arcSize=14;strokeWidth=1;fillColor=#dae8fc;strokeColor=#6c8ebf;" vertex="1" parent="WIyWlLk6GJQsqaUBKTNV-1">
          <mxGeometry x="3174.48" y="5035" width="251.25" height="40" as="geometry" />
        </mxCell>
        <mxCell id="l--_rwEBYW_ynLptJhpw-334" value="portOutRequestPreValidateWS(SffRequest sffRequest)" style="text;html=1;strokeColor=#3700CC;fillColor=#6a00ff;align=center;verticalAlign=middle;whiteSpace=wrap;rounded=0;fontColor=#ffffff;fontSize=42;" vertex="1" parent="WIyWlLk6GJQsqaUBKTNV-1">
          <mxGeometry x="930" y="40" width="1110" height="110" as="geometry" />
        </mxCell>
        <mxCell id="l--_rwEBYW_ynLptJhpw-335" value="&lt;div style=&quot;color: rgb(212, 212, 212); font-family: consolas, &amp;quot;courier new&amp;quot;, monospace; font-size: 36px; line-height: 19px;&quot;&gt;&lt;span style=&quot;color: rgb(106, 153, 85); font-size: 36px;&quot;&gt;&amp;nbsp;Process Web Service &lt;/span&gt;&lt;/div&gt;" style="text;html=1;strokeColor=default;fillColor=none;align=center;verticalAlign=middle;whiteSpace=wrap;rounded=0;fontColor=#FF0000;fontSize=36;labelBackgroundColor=none;" vertex="1" parent="WIyWlLk6GJQsqaUBKTNV-1">
          <mxGeometry x="1204.75" y="210" width="527.63" height="70" as="geometry" />
        </mxCell>
        <mxCell id="l--_rwEBYW_ynLptJhpw-336" value="Validate Overwrite Status Reject Require" style="text;html=1;strokeColor=none;fillColor=none;align=center;verticalAlign=middle;whiteSpace=wrap;rounded=0;fontColor=#000000;fontSize=17;fontStyle=1" vertex="1" parent="WIyWlLk6GJQsqaUBKTNV-1">
          <mxGeometry x="680" y="3945" width="370" height="35" as="geometry" />
        </mxCell>
        <mxCell id="l--_rwEBYW_ynLptJhpw-337" value="Step : Insert Service Request" style="text;html=1;strokeColor=none;fillColor=none;align=center;verticalAlign=middle;whiteSpace=wrap;rounded=0;fontColor=#000000;fontSize=17;fontStyle=1" vertex="1" parent="WIyWlLk6GJQsqaUBKTNV-1">
          <mxGeometry x="2818.27" y="1890" width="283.38" height="30" as="geometry" />
        </mxCell>
        <mxCell id="l--_rwEBYW_ynLptJhpw-338" value="Step : Check MnpPreValidate" style="text;html=1;strokeColor=none;fillColor=none;align=center;verticalAlign=middle;whiteSpace=wrap;rounded=0;fontColor=#000000;fontSize=17;fontStyle=1" vertex="1" parent="WIyWlLk6GJQsqaUBKTNV-1">
          <mxGeometry x="2938.44" y="2150" width="283.38" height="30" as="geometry" />
        </mxCell>
        <mxCell id="l--_rwEBYW_ynLptJhpw-339" value="Step : Insert MNP_PRE_VALIDATE StatusCd=Open" style="text;html=1;strokeColor=none;fillColor=none;align=center;verticalAlign=middle;whiteSpace=wrap;rounded=0;fontColor=#000000;fontSize=17;fontStyle=1" vertex="1" parent="WIyWlLk6GJQsqaUBKTNV-1">
          <mxGeometry x="2779.82" y="2775" width="443.38" height="30" as="geometry" />
        </mxCell>
        <mxCell id="l--_rwEBYW_ynLptJhpw-340" value="Step : Send Queue" style="text;html=1;strokeColor=none;fillColor=none;align=center;verticalAlign=middle;whiteSpace=wrap;rounded=0;fontColor=#000000;fontSize=17;fontStyle=1" vertex="1" parent="WIyWlLk6GJQsqaUBKTNV-1">
          <mxGeometry x="3283.6200000000003" y="3730" width="209.91" height="30" as="geometry" />
        </mxCell>
        <mxCell id="l--_rwEBYW_ynLptJhpw-341" style="edgeStyle=orthogonalEdgeStyle;rounded=0;orthogonalLoop=1;jettySize=auto;html=1;fontSize=28;fontColor=#000000;endArrow=open;endFill=0;strokeWidth=1;" edge="1" parent="WIyWlLk6GJQsqaUBKTNV-1" source="l--_rwEBYW_ynLptJhpw-342">
          <mxGeometry relative="1" as="geometry">
            <mxPoint x="3300.0950000000003" y="4440" as="targetPoint" />
          </mxGeometry>
        </mxCell>
        <mxCell id="l--_rwEBYW_ynLptJhpw-342" value="queueSenderMNPPortRequest.sendMessage(messageQueue)" style="rounded=1;whiteSpace=wrap;html=1;absoluteArcSize=1;arcSize=14;strokeWidth=1;fillColor=#dae8fc;strokeColor=#6c8ebf;" vertex="1" parent="WIyWlLk6GJQsqaUBKTNV-1">
          <mxGeometry x="3088.2700000000004" y="3905" width="423.65" height="45" as="geometry" />
        </mxCell>
        <mxCell id="l--_rwEBYW_ynLptJhpw-343" value="Insert MNP_PRE_VALIDATE_HIST&amp;nbsp;" style="text;html=1;strokeColor=none;fillColor=none;align=center;verticalAlign=middle;whiteSpace=wrap;rounded=0;fontColor=#000000;fontSize=17;fontStyle=1" vertex="1" parent="WIyWlLk6GJQsqaUBKTNV-1">
          <mxGeometry x="3482.0899999999997" y="3150" width="333.38" height="35" as="geometry" />
        </mxCell>
        <mxCell id="l--_rwEBYW_ynLptJhpw-344" value="Update MNP_PRE_VALIDATE" style="text;html=1;strokeColor=none;fillColor=none;align=center;verticalAlign=middle;whiteSpace=wrap;rounded=0;fontColor=#000000;fontSize=17;fontStyle=1" vertex="1" parent="WIyWlLk6GJQsqaUBKTNV-1">
          <mxGeometry x="3517.56" y="3265" width="297.91" height="45" as="geometry" />
        </mxCell>
        <mxCell id="l--_rwEBYW_ynLptJhpw-345" value="" style="edgeStyle=orthogonalEdgeStyle;rounded=0;orthogonalLoop=1;jettySize=auto;html=1;fontSize=28;fontColor=#FF0000;endArrow=open;endFill=0;strokeWidth=1;" edge="1" parent="WIyWlLk6GJQsqaUBKTNV-1" source="l--_rwEBYW_ynLptJhpw-346" target="l--_rwEBYW_ynLptJhpw-223">
          <mxGeometry relative="1" as="geometry" />
        </mxCell>
        <mxCell id="l--_rwEBYW_ynLptJhpw-346" value="&lt;span style=&quot;&quot;&gt;ErrorMessage = &quot;Mobile no. xxxxx is processing Pre Validate&quot;&lt;/span&gt;" style="rounded=1;whiteSpace=wrap;html=1;absoluteArcSize=1;arcSize=14;strokeWidth=1;fontColor=#FF0000;" vertex="1" parent="WIyWlLk6GJQsqaUBKTNV-1">
          <mxGeometry x="4012.84" y="3206.25" width="334.73" height="37.5" as="geometry" />
        </mxCell>
        <mxCell id="l--_rwEBYW_ynLptJhpw-347" value="Step : Reject Request" style="text;html=1;strokeColor=none;fillColor=none;align=center;verticalAlign=middle;whiteSpace=wrap;rounded=0;fontColor=#000000;fontSize=17;fontStyle=1" vertex="1" parent="WIyWlLk6GJQsqaUBKTNV-1">
          <mxGeometry x="4059" y="3162.5" width="223.38" height="37.5" as="geometry" />
        </mxCell>
        <mxCell id="l--_rwEBYW_ynLptJhpw-348" value="Step : Send SMS &#39;Approve1&#39; or&amp;nbsp; Call New WS NPG : PortOutCorporatePreValidateResult" style="text;html=1;strokeColor=none;fillColor=none;align=center;verticalAlign=middle;whiteSpace=wrap;rounded=0;fontColor=#000000;fontSize=17;fontStyle=1" vertex="1" parent="WIyWlLk6GJQsqaUBKTNV-1">
          <mxGeometry x="5080" y="3243.75" width="381.39" height="62.5" as="geometry" />
        </mxCell>
        <mxCell id="l--_rwEBYW_ynLptJhpw-349" value="Step : WS NPG for send Result Corporate" style="text;html=1;strokeColor=none;fillColor=none;align=center;verticalAlign=middle;whiteSpace=wrap;rounded=0;fontColor=#000000;fontSize=17;fontStyle=1" vertex="1" parent="WIyWlLk6GJQsqaUBKTNV-1">
          <mxGeometry x="5477.4" y="3708.13" width="381.39" height="62.5" as="geometry" />
        </mxCell>
        <mxCell id="l--_rwEBYW_ynLptJhpw-350" value="Step : Send SMS &#39;CancelRejectAlreadyCancel&#39;" style="text;html=1;strokeColor=none;fillColor=none;align=center;verticalAlign=middle;whiteSpace=wrap;rounded=0;fontColor=#000000;fontSize=17;fontStyle=1" vertex="1" parent="WIyWlLk6GJQsqaUBKTNV-1">
          <mxGeometry x="6391.5" y="3155" width="381.39" height="62.5" as="geometry" />
        </mxCell>
        <mxCell id="l--_rwEBYW_ynLptJhpw-351" value="&amp;nbsp;Step : Send SMS &#39;WaitNextDay&#39;&amp;nbsp;" style="text;html=1;strokeColor=none;fillColor=none;align=center;verticalAlign=middle;whiteSpace=wrap;rounded=0;fontColor=#000000;fontSize=17;fontStyle=1" vertex="1" parent="WIyWlLk6GJQsqaUBKTNV-1">
          <mxGeometry x="7360" y="3160" width="310" height="52.5" as="geometry" />
        </mxCell>
        <mxCell id="l--_rwEBYW_ynLptJhpw-352" value="&#39;Submit for Approve&#39;,&#39;Reply&#39; Block Case Reject 1004 ussd" style="text;html=1;strokeColor=none;fillColor=none;align=center;verticalAlign=middle;whiteSpace=wrap;rounded=0;fontColor=#000000;fontSize=17;fontStyle=1" vertex="1" parent="WIyWlLk6GJQsqaUBKTNV-1">
          <mxGeometry x="6791.56" y="3002.5" width="540" height="60" as="geometry" />
        </mxCell>
        <mxCell id="l--_rwEBYW_ynLptJhpw-353" value="True" style="text;html=1;align=center;verticalAlign=middle;whiteSpace=wrap;rounded=0;fontColor=#009900;" vertex="1" parent="WIyWlLk6GJQsqaUBKTNV-1">
          <mxGeometry x="911.75" y="1450" width="60" height="30" as="geometry" />
        </mxCell>
        <mxCell id="l--_rwEBYW_ynLptJhpw-354" value="False" style="text;html=1;strokeColor=none;fillColor=none;align=center;verticalAlign=middle;whiteSpace=wrap;rounded=0;fontColor=#FF0000;" vertex="1" parent="WIyWlLk6GJQsqaUBKTNV-1">
          <mxGeometry x="7168.13" y="4310" width="60" height="30" as="geometry" />
        </mxCell>
        <mxCell id="l--_rwEBYW_ynLptJhpw-355" value="False" style="text;html=1;strokeColor=none;fillColor=none;align=center;verticalAlign=middle;whiteSpace=wrap;rounded=0;fontColor=#FF0000;" vertex="1" parent="WIyWlLk6GJQsqaUBKTNV-1">
          <mxGeometry x="1455" y="4176.25" width="60" height="30" as="geometry" />
        </mxCell>
        <mxCell id="l--_rwEBYW_ynLptJhpw-356" value="False" style="text;html=1;strokeColor=none;fillColor=none;align=center;verticalAlign=middle;whiteSpace=wrap;rounded=0;fontColor=#FF0000;" vertex="1" parent="WIyWlLk6GJQsqaUBKTNV-1">
          <mxGeometry x="2589.9999999999995" y="1970" width="60" height="30" as="geometry" />
        </mxCell>
        <mxCell id="l--_rwEBYW_ynLptJhpw-357" value="False" style="text;html=1;strokeColor=none;fillColor=none;align=center;verticalAlign=middle;whiteSpace=wrap;rounded=0;fontColor=#FF0000;" vertex="1" parent="WIyWlLk6GJQsqaUBKTNV-1">
          <mxGeometry x="4517.13" y="4135" width="60" height="30" as="geometry" />
        </mxCell>
      </root>
    </mxGraphModel>
  </diagram>
</mxfile>
